<mxfile host="app.diagrams.net" agent="Mozilla/5.0 (Windows NT 10.0; Win64; x64) AppleWebKit/537.36 (KHTML, like Gecko) Chrome/131.0.0.0 Safari/537.36 Edg/131.0.0.0" version="26.0.2" pages="4">
  <diagram id="Zf8DWnAmfZFCOAY3EVG-" name="Sujet">
    <mxGraphModel dx="1378" dy="829" grid="1" gridSize="10" guides="1" tooltips="1" connect="1" arrows="1" fold="1" page="1" pageScale="1" pageWidth="827" pageHeight="1169" math="0" shadow="0">
      <root>
        <mxCell id="0" />
        <mxCell id="1" parent="0" />
        <mxCell id="Eijif60r5JADXWS47vTC-2" value="" style="rounded=1;whiteSpace=wrap;html=1;arcSize=1;" parent="1" vertex="1">
          <mxGeometry x="20" y="20" width="790" height="1130" as="geometry" />
        </mxCell>
        <mxCell id="zf6PMpYXLcy7Vt312hjf-2" value="&lt;b&gt;&lt;u&gt;&lt;font style=&quot;font-size: 14px;&quot;&gt;1. Contexte:&lt;/font&gt;&lt;/u&gt;&lt;/b&gt;&lt;div&gt;&lt;br&gt;&lt;/div&gt;&lt;div&gt;La société No Name Corp est spécialisée dans la fabrication d’attaches type trombones depuis 1922. Son fondateur, M.Sudo, a réussit à l’époque à faire de la société le leader européen des trombones métalliques.&amp;nbsp;&lt;span style=&quot;background-color: transparent; color: light-dark(rgb(0, 0, 0), rgb(255, 255, 255));&quot;&gt;&amp;nbsp;&lt;/span&gt;&lt;span style=&quot;background-color: transparent; color: light-dark(rgb(0, 0, 0), rgb(255, 255, 255));&quot;&gt;Installée à Limoges depuis le début, elle compte aujourd&#39;hui 42 salariés.&lt;/span&gt;&lt;/div&gt;&lt;div&gt;Aujourd’hui, c’est sa petite fille Jeane Sudo, qui dirige l’entreprise.&amp;nbsp;&lt;span style=&quot;background-color: transparent; color: light-dark(rgb(0, 0, 0), rgb(255, 255, 255));&quot;&gt;Depuis maintenant 10 ans, elle a amorcé le passage au numérique de l’entreprise. L’ancien grand bureau de direction à l’étage du bâtiment a été scindé en deux, et un bureau SI ainsi qu’une salle serveur ont été créés. Deux baies réseaux ont été ajoutées lors de la migration initiale en 2012, afin de pouvoir connecter tout ordinateurs qui le nécessitent.&lt;/span&gt;&lt;/div&gt;&lt;div&gt;&lt;br&gt;&lt;/div&gt;&lt;div&gt;- Dans les bureaux, le besoin actuel est bien rempli, avec une quinzaine de postes clients connectés en filaire depuis la baie réseau du rez de chaussée.&lt;/div&gt;&lt;div&gt;- Dans le bâtiments des ateliers de production, une baie réseau a été positionnée dans le bureau des responsables de production, afin qu’ils puissent avoir des ordinateurs connectés au réseau et travailler sur le logiciel ERP de l’entreprise.&lt;br&gt;&lt;/div&gt;&lt;div&gt;&lt;br&gt;&lt;/div&gt;&lt;div&gt;Aujourd’hui, l’entreprise souhaiterai moderniser ses 3 chaînes de production, en utilisant des systèmes automates connectés et une vrai supervision des chaînes.&lt;/div&gt;&lt;div&gt;&lt;br&gt;&lt;/div&gt;&lt;div&gt;Vous arrivez dans ce contexte, sous la direction d’un SI avec un seul responsable SI, qui vous demande d’étudier le sujet afin de participer activement à l’évolution de l’infrastructure réseau.&lt;/div&gt;&lt;div&gt;&lt;br&gt;&lt;/div&gt;&lt;div&gt;&lt;b&gt;&lt;u&gt;&lt;font style=&quot;font-size: 14px;&quot;&gt;2. Données techniques actuelles:&lt;/font&gt;&lt;/u&gt;&lt;/b&gt;&lt;/div&gt;&lt;div&gt;&lt;br&gt;&lt;/div&gt;&lt;div&gt;Suite à votre étude de la partie 1, le responsable SI a décidé de procéder avec l&#39;infrastructure suivante:&lt;/div&gt;&lt;div&gt;&lt;ul&gt;&lt;li&gt;Dans la salle serveur, un cœur de réseau modulaire avec:&lt;/li&gt;&lt;ul&gt;&lt;li&gt;Deux unités 24 port SFP+&lt;/li&gt;&lt;li&gt;Deux unités 48 ports Gigabit Ethernet&lt;/li&gt;&lt;li&gt;Double alimentation redondante ondulée&lt;/li&gt;&lt;/ul&gt;&lt;li&gt;Dans chaque baie réseau:&lt;/li&gt;&lt;ul&gt;&lt;li&gt;Un switch de distribution 48 ports Gigabit Ethernet + 4 SFP+ pour lien montant&lt;/li&gt;&lt;li&gt;Un onduleur batterie&lt;/li&gt;&lt;/ul&gt;&lt;li&gt;Dans la baie serveur:&lt;/li&gt;&lt;ul&gt;&lt;li&gt;1 serveur Hyperviseur (Windows server 2012 - 4 cœurs - 16Go de mémoire vive - 5 x 300go hdd sas)&lt;/li&gt;&lt;li&gt;1 serveur Hyperviseur (Red Hat Entreprise Linux 9.5 - 24 cœurs - 128 Go de mémoire vive - 8 x 2To hdd sas)&lt;/li&gt;&lt;/ul&gt;&lt;li&gt;Dans la baie système fab02 :&lt;/li&gt;&lt;ul&gt;&lt;li&gt;1 serveur Hyperviseur (Red Hat Entreprise Linux 9.5 - 12 cœurs - 64 Go de mémoire vive - 8 x 1To hdd sas)&lt;/li&gt;&lt;/ul&gt;&lt;li&gt;Câblage :&amp;nbsp;&lt;/li&gt;&lt;ul&gt;&lt;li&gt;Les liens cœur de réseau / serveurs sont des cables cuivres RJ45 cat 7 (x8 en agrégation par serveur)&lt;/li&gt;&lt;li&gt;Les liens cœur de réseau / switchs de distribution sont des fibres optiques OM4 x2&lt;/li&gt;&lt;li&gt;Les liens Switchs de distribution / postes clients sont des câbles cuivres RJ45 Cat 6a&lt;/li&gt;&lt;/ul&gt;&lt;/ul&gt;&lt;div&gt;L&#39;intégralité des machines et services présents sur le serveur historique (win 2012) vont être migrées sur un système d&#39;hypervision sous Red Hat Entreprise Linux (RHEL) 9.5, avec soit des machines virtuelles sous kvm, soit des containers podman.&lt;/div&gt;&lt;/div&gt;&lt;div&gt;&lt;br&gt;&lt;/div&gt;&lt;div&gt;&lt;b&gt;&lt;u&gt;&lt;font style=&quot;font-size: 14px;&quot;&gt;3. Problématique:&lt;/font&gt;&lt;/u&gt;&lt;/b&gt;&lt;/div&gt;&lt;div&gt;&lt;span style=&quot;background-color: transparent; color: light-dark(rgb(0, 0, 0), rgb(255, 255, 255));&quot;&gt;&lt;br&gt;&lt;/span&gt;&lt;/div&gt;&lt;div&gt;&lt;span style=&quot;background-color: transparent; color: light-dark(rgb(0, 0, 0), rgb(255, 255, 255));&quot;&gt;&lt;font&gt;La solution technique ayant été choisie, le responsable SI vous demande de vous occuper du budget de ce projet.&amp;nbsp;&lt;/font&gt;&lt;/span&gt;&lt;/div&gt;&lt;div&gt;&lt;span style=&quot;background-color: transparent; color: light-dark(rgb(0, 0, 0), rgb(255, 255, 255));&quot;&gt;&lt;font&gt;&lt;br&gt;&lt;/font&gt;&lt;/span&gt;&lt;/div&gt;&lt;div&gt;&lt;b&gt;&lt;u&gt;&lt;font style=&quot;font-size: 14px;&quot;&gt;4. Attendus:&lt;/font&gt;&lt;/u&gt;&lt;/b&gt;&lt;/div&gt;&lt;div&gt;&lt;br&gt;&lt;/div&gt;&lt;div&gt;&lt;ul&gt;&lt;li&gt;Le responsable SI du site vous demande de préparer un tableau récapitulatif précis à présenter à la direction du site.&lt;/li&gt;&lt;li&gt;Vous devez également préparer une présentation Powerpoint de 5 slides pour faire cette présentation.&lt;/li&gt;&lt;/ul&gt;&lt;/div&gt;&lt;div&gt;&lt;br&gt;&lt;/div&gt;&lt;div&gt;C&#39;est vous qui présenterez le projet et son budget pendant une fenêtre de 5 minutes devant le comité de direction.&lt;/div&gt;&lt;div&gt;&lt;br&gt;&lt;/div&gt;&lt;div&gt;&lt;b&gt;&lt;u&gt;&lt;font style=&quot;font-size: 14px;&quot;&gt;5. Format de la présentation:&lt;/font&gt;&lt;/u&gt;&lt;/b&gt;&lt;/div&gt;&lt;div&gt;&lt;br&gt;&lt;/div&gt;&lt;div&gt;&lt;ol&gt;&lt;li&gt;Présentation du contexte du projet et résumé des problématiques&lt;/li&gt;&lt;li&gt;Solutions à la problématique &quot;lenteur de réseau&quot;&lt;/li&gt;&lt;li&gt;Solution à la problématique &quot;extension du réseau dans l&#39;atelier 3&quot;&lt;/li&gt;&lt;li&gt;Récapitulatif de la solution globale&lt;/li&gt;&lt;li&gt;Présentation du budget&lt;/li&gt;&lt;/ol&gt;&lt;/div&gt;" style="text;html=1;align=left;verticalAlign=top;whiteSpace=wrap;rounded=0;" parent="1" vertex="1">
          <mxGeometry x="29" y="80" width="770" height="1070" as="geometry" />
        </mxCell>
        <mxCell id="Eijif60r5JADXWS47vTC-1" value="1.1 - TP fil rouge - Partie 2 - Votre arrivée dans l’entreprise No Name Corp." style="rounded=1;whiteSpace=wrap;html=1;fillColor=#CC99FF;strokeColor=#9673a6;fontColor=#FFFFFF;fontSize=14;fontStyle=1" parent="1" vertex="1">
          <mxGeometry x="60" y="40" width="710" height="30" as="geometry" />
        </mxCell>
      </root>
    </mxGraphModel>
  </diagram>
  <diagram name="Topologie" id="H9irVcF_rrNOjkgV-mIr">
    <mxGraphModel dx="1621" dy="975" grid="1" gridSize="10" guides="0" tooltips="1" connect="1" arrows="1" fold="1" page="1" pageScale="1" pageWidth="827" pageHeight="1169" math="0" shadow="0">
      <root>
        <mxCell id="0" />
        <mxCell id="1" parent="0" />
        <mxCell id="1Z9PVCYlNnGnwnFfKap0-1" value="" style="rounded=1;whiteSpace=wrap;html=1;arcSize=1;" parent="1" vertex="1">
          <mxGeometry x="20" y="20" width="790" height="1130" as="geometry" />
        </mxCell>
        <mxCell id="1Z9PVCYlNnGnwnFfKap0-2" value="1.1 - TP fil rouge - Partie 2 - Annexe 1 - Topologie réseau" style="rounded=1;whiteSpace=wrap;html=1;fillColor=#CC99FF;strokeColor=#9673a6;fontColor=#FFFFFF;fontSize=14;fontStyle=1" parent="1" vertex="1">
          <mxGeometry x="60" y="30" width="710" height="30" as="geometry" />
        </mxCell>
        <mxCell id="9j41Xf2RF-thWnLo52nP-37" value="" style="rounded=1;whiteSpace=wrap;html=1;fontFamily=Helvetica;fontSize=11;labelBackgroundColor=default;fillColor=#ffe6cc;arcSize=3;strokeColor=#d79b00;" parent="1" vertex="1">
          <mxGeometry x="40" y="735" width="690" height="175" as="geometry" />
        </mxCell>
        <mxCell id="dfdCdgFeH61obHp5bPQe-27" value="Unité de fabrication 2" style="rounded=1;whiteSpace=wrap;html=1;fontFamily=Helvetica;fontSize=11;labelBackgroundColor=default;fillColor=#fff2cc;arcSize=3;strokeColor=#d6b656;align=left;" parent="1" vertex="1">
          <mxGeometry x="50" y="825" width="390" height="40" as="geometry" />
        </mxCell>
        <mxCell id="dfdCdgFeH61obHp5bPQe-26" value="Unité de fabrication 1" style="rounded=1;whiteSpace=wrap;html=1;fontFamily=Helvetica;fontSize=11;labelBackgroundColor=default;fillColor=#fff2cc;arcSize=3;strokeColor=#d6b656;align=left;" parent="1" vertex="1">
          <mxGeometry x="50" y="775" width="390" height="40" as="geometry" />
        </mxCell>
        <mxCell id="9j41Xf2RF-thWnLo52nP-36" value="" style="rounded=1;whiteSpace=wrap;html=1;fontFamily=Helvetica;fontSize=11;labelBackgroundColor=default;fillColor=#dae8fc;arcSize=3;strokeColor=#6c8ebf;" parent="1" vertex="1">
          <mxGeometry x="40" y="530" width="690" height="200" as="geometry" />
        </mxCell>
        <mxCell id="9j41Xf2RF-thWnLo52nP-35" value="" style="rounded=1;whiteSpace=wrap;html=1;fontFamily=Helvetica;fontSize=11;labelBackgroundColor=default;fillColor=#d5e8d4;arcSize=3;strokeColor=#82b366;" parent="1" vertex="1">
          <mxGeometry x="40" y="70" width="690" height="450" as="geometry" />
        </mxCell>
        <mxCell id="dl8DAiWBKm6dLVGj8xog-1" value="" style="strokeColor=#666666;html=1;verticalLabelPosition=bottom;labelBackgroundColor=#ffffff;verticalAlign=top;outlineConnect=0;shadow=0;dashed=0;shape=mxgraph.rackGeneral.rackCabinet3;fillColor2=#f4f4f4;container=1;collapsible=0;childLayout=rack;allowGaps=1;marginLeft=33;marginRight=9;marginTop=21;marginBottom=22;textColor=#666666;numDisp=ascend;" parent="1" vertex="1">
          <mxGeometry x="520" y="550" width="204" height="160" as="geometry" />
        </mxCell>
        <mxCell id="dl8DAiWBKm6dLVGj8xog-4" value="" style="strokeColor=#666666;html=1;labelPosition=right;align=left;spacingLeft=15;shadow=0;dashed=0;outlineConnect=0;shape=mxgraph.rack.general.cat5e_enhanced_patch_panel_48_ports;points=[[0.84,0.67,0,0,0],[0.91,0.67,0,0,0],[1,0.33,0,0,0],[1,0.67,0,0,0]];" parent="dl8DAiWBKm6dLVGj8xog-1" vertex="1">
          <mxGeometry x="33" y="21" width="162" height="30" as="geometry" />
        </mxCell>
        <mxCell id="9j41Xf2RF-thWnLo52nP-3" value="" style="html=1;verticalLabelPosition=bottom;verticalAlign=top;outlineConnect=0;shadow=0;dashed=0;shape=mxgraph.rack.hpe_aruba.switches.j9781a_2530_48_front;points=[[0.12,0.6,0,0,0],[0.23,0.6,0,0,0],[0.34,0.6,0,0,0],[0.45,0.6,0,0,0],[0.56,0.6,0,0,0],[0.67,0.6,0,0,0],[0.78,0.6,0,0,0],[0.86,0.6,0,0,0],[0.93,0.8,0,0,0],[0.96,0.8,0,0,0]];" parent="dl8DAiWBKm6dLVGj8xog-1" vertex="1">
          <mxGeometry x="33" y="51" width="162" height="15" as="geometry" />
        </mxCell>
        <mxCell id="dl8DAiWBKm6dLVGj8xog-5" value="" style="shape=mxgraph.rack.apc.apc_smart_ups_5000_va_5u;html=1;labelPosition=right;align=left;spacingLeft=15;dashed=0;shadow=0;fillColor=#ffffff;" parent="dl8DAiWBKm6dLVGj8xog-1" vertex="1">
          <mxGeometry x="33" y="66" width="162" height="74" as="geometry" />
        </mxCell>
        <mxCell id="9j41Xf2RF-thWnLo52nP-27" style="edgeStyle=orthogonalEdgeStyle;shape=connector;rounded=0;orthogonalLoop=1;jettySize=auto;html=1;exitX=0.91;exitY=0.67;exitDx=0;exitDy=0;exitPerimeter=0;entryX=0.96;entryY=0.8;entryDx=0;entryDy=0;entryPerimeter=0;strokeColor=#0066CC;strokeWidth=2;align=center;verticalAlign=middle;fontFamily=Helvetica;fontSize=11;fontColor=default;labelBackgroundColor=default;endArrow=none;endFill=0;" parent="dl8DAiWBKm6dLVGj8xog-1" source="dl8DAiWBKm6dLVGj8xog-4" target="9j41Xf2RF-thWnLo52nP-3" edge="1">
          <mxGeometry relative="1" as="geometry" />
        </mxCell>
        <mxCell id="9j41Xf2RF-thWnLo52nP-28" style="edgeStyle=orthogonalEdgeStyle;shape=connector;rounded=0;orthogonalLoop=1;jettySize=auto;html=1;exitX=0.84;exitY=0.67;exitDx=0;exitDy=0;exitPerimeter=0;entryX=0.93;entryY=0.8;entryDx=0;entryDy=0;entryPerimeter=0;strokeColor=#0066CC;strokeWidth=2;align=center;verticalAlign=middle;fontFamily=Helvetica;fontSize=11;fontColor=default;labelBackgroundColor=default;endArrow=none;endFill=0;" parent="dl8DAiWBKm6dLVGj8xog-1" source="dl8DAiWBKm6dLVGj8xog-4" target="9j41Xf2RF-thWnLo52nP-3" edge="1">
          <mxGeometry relative="1" as="geometry">
            <Array as="points">
              <mxPoint x="169" y="50" />
              <mxPoint x="184" y="50" />
            </Array>
          </mxGeometry>
        </mxCell>
        <mxCell id="dl8DAiWBKm6dLVGj8xog-6" value="" style="strokeColor=#666666;html=1;verticalLabelPosition=bottom;labelBackgroundColor=#ffffff;verticalAlign=top;outlineConnect=0;shadow=0;dashed=0;shape=mxgraph.rackGeneral.rackCabinet3;fillColor2=#f4f4f4;container=1;collapsible=0;childLayout=rack;allowGaps=1;marginLeft=33;marginRight=9;marginTop=21;marginBottom=22;textColor=#666666;numDisp=ascend;" parent="1" vertex="1">
          <mxGeometry x="520" y="740" width="204" height="160" as="geometry" />
        </mxCell>
        <mxCell id="dl8DAiWBKm6dLVGj8xog-7" value="" style="strokeColor=#666666;html=1;labelPosition=right;align=left;spacingLeft=15;shadow=0;dashed=0;outlineConnect=0;shape=mxgraph.rack.general.cat5e_enhanced_patch_panel_48_ports;points=[[0.86,0.8,0,0,0],[0.91,0.8,0,0,0],[1,0.33,0,0,0],[1,0.67,0,0,0]];" parent="dl8DAiWBKm6dLVGj8xog-6" vertex="1">
          <mxGeometry x="33" y="21" width="162" height="30" as="geometry" />
        </mxCell>
        <mxCell id="dl8DAiWBKm6dLVGj8xog-8" value="" style="html=1;verticalLabelPosition=bottom;verticalAlign=top;outlineConnect=0;shadow=0;dashed=0;shape=mxgraph.rack.hpe_aruba.switches.j9781a_2530_48_front;points=[[0.12,0.6,0,0,0],[0.23,0.6,0,0,0],[0.34,0.6,0,0,0],[0.45,0.6,0,0,0],[0.56,0.6,0,0,0],[0.67,0.6,0,0,0],[0.78,0.6,0,0,0],[0.86,0.6,0,0,0],[0.93,0.8,0,0,0],[0.96,0.8,0,0,0]];" parent="dl8DAiWBKm6dLVGj8xog-6" vertex="1">
          <mxGeometry x="33" y="51" width="162" height="15" as="geometry" />
        </mxCell>
        <mxCell id="dl8DAiWBKm6dLVGj8xog-9" value="" style="shape=mxgraph.rack.apc.apc_smart_ups_5000_va_5u;html=1;labelPosition=right;align=left;spacingLeft=15;dashed=0;shadow=0;fillColor=#ffffff;" parent="dl8DAiWBKm6dLVGj8xog-6" vertex="1">
          <mxGeometry x="33" y="66" width="162" height="74" as="geometry" />
        </mxCell>
        <mxCell id="9j41Xf2RF-thWnLo52nP-33" style="edgeStyle=orthogonalEdgeStyle;shape=connector;rounded=0;orthogonalLoop=1;jettySize=auto;html=1;exitX=0.91;exitY=0.8;exitDx=0;exitDy=0;exitPerimeter=0;entryX=0.96;entryY=0.8;entryDx=0;entryDy=0;entryPerimeter=0;strokeColor=#FF8000;strokeWidth=2;align=center;verticalAlign=middle;fontFamily=Helvetica;fontSize=11;fontColor=default;labelBackgroundColor=default;endArrow=none;endFill=0;" parent="dl8DAiWBKm6dLVGj8xog-6" source="dl8DAiWBKm6dLVGj8xog-7" target="dl8DAiWBKm6dLVGj8xog-8" edge="1">
          <mxGeometry relative="1" as="geometry" />
        </mxCell>
        <mxCell id="9j41Xf2RF-thWnLo52nP-34" style="edgeStyle=orthogonalEdgeStyle;shape=connector;rounded=0;orthogonalLoop=1;jettySize=auto;html=1;exitX=0.86;exitY=0.8;exitDx=0;exitDy=0;exitPerimeter=0;entryX=0.93;entryY=0.8;entryDx=0;entryDy=0;entryPerimeter=0;strokeColor=#FF8000;strokeWidth=2;align=center;verticalAlign=middle;fontFamily=Helvetica;fontSize=11;fontColor=default;labelBackgroundColor=default;endArrow=none;endFill=0;" parent="dl8DAiWBKm6dLVGj8xog-6" source="dl8DAiWBKm6dLVGj8xog-7" target="dl8DAiWBKm6dLVGj8xog-8" edge="1">
          <mxGeometry relative="1" as="geometry">
            <Array as="points">
              <mxPoint x="172" y="50" />
              <mxPoint x="184" y="50" />
            </Array>
          </mxGeometry>
        </mxCell>
        <mxCell id="dl8DAiWBKm6dLVGj8xog-10" value="" style="strokeColor=#666666;html=1;verticalLabelPosition=bottom;labelBackgroundColor=#ffffff;verticalAlign=top;outlineConnect=0;shadow=0;dashed=0;shape=mxgraph.rackGeneral.rackCabinet3;fillColor2=#f4f4f4;container=1;collapsible=0;childLayout=rack;allowGaps=1;marginLeft=33;marginRight=9;marginTop=21;marginBottom=22;textColor=#666666;numDisp=ascend;" parent="1" vertex="1">
          <mxGeometry x="520" y="120" width="204" height="370" as="geometry" />
        </mxCell>
        <mxCell id="dl8DAiWBKm6dLVGj8xog-11" value="" style="strokeColor=#666666;html=1;labelPosition=right;align=left;spacingLeft=15;shadow=0;dashed=0;outlineConnect=0;shape=mxgraph.rack.general.cat5e_enhanced_patch_panel_48_ports;points=[[0.06,0.73,0,0,0],[0.1,0.73,0,0,0],[0.13,0.73,0,0,0],[0.16,0.73,0,0,0],[0.19,0.73,0,0,0],[0.23,0.73,0,0,0],[0.26,0.73,0,0,0],[0.29,0.73,0,0,0],[0.32,0.73,0,0,0],[0.35,0.73,0,0,0],[0.39,0.73,0,0,0],[0.42,0.73,0,0,0],[0.45,0.73,0,0,0],[0.48,0.73,0,0,0],[0.52,0.73,0,0,0],[0.55,0.73,0,0,0],[0.58,0.73,0,0,0],[0.61,0.73,0,0,0],[0.65,0.73,0,0,0],[0.68,0.73,0,0,0],[0.71,0.73,0,0,0],[0.74,0.73,0,0,0],[0.77,0.73,0,0,0],[0.81,0.73,0,0,0],[0.84,0.73,0,0,0],[0.87,0.73,0,0,0],[0.9,0.73,0,0,0],[0.94,0.73,0,0,0],[1,0,0,0,0],[1,0.2,0,0,0],[1,0.4,0,0,0],[1,0.6,0,0,0],[1,0.8,0,0,0],[1,1,0,0,0]];" parent="dl8DAiWBKm6dLVGj8xog-10" vertex="1">
          <mxGeometry x="33" y="21" width="162" height="30" as="geometry" />
        </mxCell>
        <mxCell id="dl8DAiWBKm6dLVGj8xog-14" value="" style="strokeColor=#666666;html=1;labelPosition=right;align=left;spacingLeft=15;shadow=0;dashed=0;outlineConnect=0;shape=mxgraph.rack.general.cat5e_enhanced_patch_panel_48_ports;" parent="dl8DAiWBKm6dLVGj8xog-10" vertex="1">
          <mxGeometry x="33" y="51" width="162" height="30" as="geometry" />
        </mxCell>
        <mxCell id="5xNo_FaIS-vA76P3_rJ1-1" value="" style="html=1;verticalLabelPosition=bottom;verticalAlign=top;outlineConnect=0;shadow=0;dashed=0;shape=mxgraph.rack.hpe_aruba.switches.r0x43a_aruba_6400_24p_sfp_4sfp56_module;points=[[0.36,0.8,0,0,0],[0.4,0.8,0,0,0],[0.5,0.8,0,0,0],[0.54,0.8,0,0,0],[0.57,0.8,0,0,0],[0.61,0.8,0,0,0],[0.65,0.8,0,0,0],[0.69,0.8,0,0,0]];" parent="dl8DAiWBKm6dLVGj8xog-10" vertex="1">
          <mxGeometry x="33" y="81" width="162" height="15" as="geometry" />
        </mxCell>
        <mxCell id="dl8DAiWBKm6dLVGj8xog-12" value="" style="html=1;verticalLabelPosition=bottom;verticalAlign=top;outlineConnect=0;shadow=0;dashed=0;shape=mxgraph.rack.hpe_aruba.switches.j9781a_2530_48_front;points=[[0.12,0.2,0,0,0],[0.16,0.2,0,0,0],[0.19,0.2,0,0,0],[0.23,0.2,0,0,0],[0.26,0.2,0,0,0],[0.29,0.2,0,0,0],[0.33,0.2,0,0,0],[0.36,0.2,0,0,0],[0.4,0.2,0,0,0],[0.43,0.2,0,0,0],[0.47,0.2,0,0,0],[0.5,0.2,0,0,0],[0.54,0.2,0,0,0],[0.57,0.2,0,0,0],[0.6,0.2,0,0,0],[0.64,0.2,0,0,0],[0.67,0.2,0,0,0],[0.71,0.2,0,0,0],[0.74,0.2,0,0,0],[0.78,0.2,0,0,0],[0.81,0.2,0,0,0],[0.85,0.2,0,0,0],[0.88,0.2,0,0,0]];" parent="dl8DAiWBKm6dLVGj8xog-10" vertex="1">
          <mxGeometry x="33" y="111" width="162" height="15" as="geometry" />
        </mxCell>
        <mxCell id="dl8DAiWBKm6dLVGj8xog-15" value="" style="html=1;verticalLabelPosition=bottom;verticalAlign=top;outlineConnect=0;shadow=0;dashed=0;shape=mxgraph.rack.hpe_aruba.switches.j9781a_2530_48_front;points=[[0.1,0.8,0,0,0],[0.14,0.8,0,0,0],[0.17,0.8,0,0,0],[0.21,0.8,0,0,0],[0.24,0.8,0,0,0],[0.28,0.8,0,0,0],[0.31,0.8,0,0,0],[0.34,0.8,0,0,0],[0.38,0.8,0,0,0],[0.41,0.8,0,0,0],[0.45,0.8,0,0,0],[0.48,0.8,0,0,0],[0.52,0.8,0,0,0],[0.55,0.8,0,0,0],[0.59,0.8,0,0,0],[0.62,0.8,0,0,0],[0.66,0.8,0,0,0],[0.69,0.8,0,0,0],[0.72,0.8,0,0,0],[0.76,0.8,0,0,0],[0.79,0.8,0,0,0],[0.83,0.8,0,0,0],[0.86,0.8,0,0,0],[0.9,0.8,0,0,0]];" parent="dl8DAiWBKm6dLVGj8xog-10" vertex="1">
          <mxGeometry x="33" y="126" width="162" height="15" as="geometry" />
        </mxCell>
        <mxCell id="dl8DAiWBKm6dLVGj8xog-23" value="" style="group" parent="dl8DAiWBKm6dLVGj8xog-10" vertex="1" connectable="0">
          <mxGeometry x="33" y="141" width="162" height="56" as="geometry" />
        </mxCell>
        <mxCell id="dl8DAiWBKm6dLVGj8xog-17" value="" style="html=1;verticalLabelPosition=bottom;verticalAlign=top;outlineConnect=0;shadow=0;dashed=0;shape=mxgraph.rack.hpe_aruba.switches.j9821a_540r_zl2_switch_rear;" parent="dl8DAiWBKm6dLVGj8xog-23" vertex="1">
          <mxGeometry width="162" height="56" as="geometry" />
        </mxCell>
        <mxCell id="dl8DAiWBKm6dLVGj8xog-16" value="" style="html=1;verticalLabelPosition=bottom;verticalAlign=top;outlineConnect=0;shadow=0;dashed=0;shape=mxgraph.rack.hpe_aruba.switches.j9830b_5400r_2750w_poeplus_zl2_power_supply;" parent="dl8DAiWBKm6dLVGj8xog-23" vertex="1">
          <mxGeometry x="1" y="6.5" width="70" height="42" as="geometry" />
        </mxCell>
        <mxCell id="dl8DAiWBKm6dLVGj8xog-18" value="" style="html=1;verticalLabelPosition=bottom;verticalAlign=top;outlineConnect=0;shadow=0;dashed=0;shape=mxgraph.rack.hpe_aruba.switches.j9830b_5400r_2750w_poeplus_zl2_power_supply;" parent="dl8DAiWBKm6dLVGj8xog-23" vertex="1">
          <mxGeometry x="71" y="6.5" width="70" height="42" as="geometry" />
        </mxCell>
        <mxCell id="5xNo_FaIS-vA76P3_rJ1-3" value="" style="shape=mxgraph.rack.apc.apc_smart_ups_5000_va_5u;html=1;labelPosition=right;align=left;spacingLeft=15;dashed=0;shadow=0;fillColor=#ffffff;" parent="dl8DAiWBKm6dLVGj8xog-10" vertex="1">
          <mxGeometry x="33" y="197" width="162" height="74" as="geometry" />
        </mxCell>
        <mxCell id="dl8DAiWBKm6dLVGj8xog-13" value="" style="shape=mxgraph.rack.apc.apc_smart_ups_5000_va_5u;html=1;labelPosition=right;align=left;spacingLeft=15;dashed=0;shadow=0;fillColor=#ffffff;" parent="dl8DAiWBKm6dLVGj8xog-10" vertex="1">
          <mxGeometry x="33" y="271" width="162" height="74" as="geometry" />
        </mxCell>
        <mxCell id="9j41Xf2RF-thWnLo52nP-2" value="" style="html=1;verticalLabelPosition=bottom;verticalAlign=top;outlineConnect=0;shadow=0;dashed=0;shape=mxgraph.rack.hpe_aruba.switches.r0x43a_aruba_6400_24p_sfp_4sfp56_module;points=[[0.36,0.8,0,0,0],[0.4,0.8,0,0,0],[0.5,0.8,0,0,0],[0.54,0.8,0,0,0],[0.57,0.8,0,0,0],[0.61,0.8,0,0,0],[0.65,0.8,0,0,0],[0.69,0.8,0,0,0]];" parent="dl8DAiWBKm6dLVGj8xog-10" vertex="1">
          <mxGeometry x="33" y="96" width="162" height="15" as="geometry" />
        </mxCell>
        <mxCell id="9j41Xf2RF-thWnLo52nP-23" style="edgeStyle=orthogonalEdgeStyle;shape=connector;rounded=0;orthogonalLoop=1;jettySize=auto;html=1;exitX=0.69;exitY=0.8;exitDx=0;exitDy=0;exitPerimeter=0;entryX=0.94;entryY=0.73;entryDx=0;entryDy=0;entryPerimeter=0;strokeColor=#0066CC;strokeWidth=2;align=center;verticalAlign=middle;fontFamily=Helvetica;fontSize=11;fontColor=default;labelBackgroundColor=default;endArrow=none;endFill=0;" parent="dl8DAiWBKm6dLVGj8xog-10" source="5xNo_FaIS-vA76P3_rJ1-1" target="dl8DAiWBKm6dLVGj8xog-11" edge="1">
          <mxGeometry relative="1" as="geometry">
            <Array as="points">
              <mxPoint x="145" y="80" />
              <mxPoint x="185" y="80" />
            </Array>
          </mxGeometry>
        </mxCell>
        <mxCell id="9j41Xf2RF-thWnLo52nP-24" style="edgeStyle=orthogonalEdgeStyle;shape=connector;rounded=0;orthogonalLoop=1;jettySize=auto;html=1;exitX=0.65;exitY=0.8;exitDx=0;exitDy=0;exitPerimeter=0;entryX=0.9;entryY=0.73;entryDx=0;entryDy=0;entryPerimeter=0;strokeColor=#FF8000;strokeWidth=2;align=center;verticalAlign=middle;fontFamily=Helvetica;fontSize=11;fontColor=default;labelBackgroundColor=default;endArrow=none;endFill=0;" parent="dl8DAiWBKm6dLVGj8xog-10" source="5xNo_FaIS-vA76P3_rJ1-1" target="dl8DAiWBKm6dLVGj8xog-11" edge="1">
          <mxGeometry relative="1" as="geometry">
            <Array as="points">
              <mxPoint x="138" y="70" />
              <mxPoint x="179" y="70" />
            </Array>
          </mxGeometry>
        </mxCell>
        <mxCell id="9j41Xf2RF-thWnLo52nP-25" style="edgeStyle=orthogonalEdgeStyle;shape=connector;rounded=0;orthogonalLoop=1;jettySize=auto;html=1;exitX=0.54;exitY=0.8;exitDx=0;exitDy=0;exitPerimeter=0;entryX=0.52;entryY=0.73;entryDx=0;entryDy=0;entryPerimeter=0;strokeColor=#0066CC;strokeWidth=2;align=center;verticalAlign=middle;fontFamily=Helvetica;fontSize=11;fontColor=default;labelBackgroundColor=default;endArrow=none;endFill=0;" parent="dl8DAiWBKm6dLVGj8xog-10" source="9j41Xf2RF-thWnLo52nP-2" target="dl8DAiWBKm6dLVGj8xog-11" edge="1">
          <mxGeometry relative="1" as="geometry">
            <Array as="points">
              <mxPoint x="121" y="60" />
              <mxPoint x="120" y="60" />
              <mxPoint x="120" y="50" />
              <mxPoint x="117" y="50" />
            </Array>
          </mxGeometry>
        </mxCell>
        <mxCell id="9j41Xf2RF-thWnLo52nP-26" style="edgeStyle=orthogonalEdgeStyle;shape=connector;rounded=0;orthogonalLoop=1;jettySize=auto;html=1;exitX=0.5;exitY=0.8;exitDx=0;exitDy=0;exitPerimeter=0;entryX=0.45;entryY=0.73;entryDx=0;entryDy=0;entryPerimeter=0;strokeColor=#FF8000;strokeWidth=2;align=center;verticalAlign=middle;fontFamily=Helvetica;fontSize=11;fontColor=default;labelBackgroundColor=default;endArrow=none;endFill=0;" parent="dl8DAiWBKm6dLVGj8xog-10" source="9j41Xf2RF-thWnLo52nP-2" target="dl8DAiWBKm6dLVGj8xog-11" edge="1">
          <mxGeometry relative="1" as="geometry">
            <Array as="points">
              <mxPoint x="114" y="50" />
              <mxPoint x="106" y="50" />
            </Array>
          </mxGeometry>
        </mxCell>
        <mxCell id="brtRXWUNe08EVccY7XU2-1" style="edgeStyle=orthogonalEdgeStyle;rounded=0;orthogonalLoop=1;jettySize=auto;html=1;exitX=0.61;exitY=0.8;exitDx=0;exitDy=0;exitPerimeter=0;entryX=0.87;entryY=0.73;entryDx=0;entryDy=0;entryPerimeter=0;endArrow=none;endFill=0;strokeWidth=2;strokeColor=#7F00FF;" edge="1" parent="dl8DAiWBKm6dLVGj8xog-10" source="5xNo_FaIS-vA76P3_rJ1-1" target="dl8DAiWBKm6dLVGj8xog-11">
          <mxGeometry relative="1" as="geometry">
            <Array as="points">
              <mxPoint x="132" y="60" />
              <mxPoint x="174" y="60" />
            </Array>
          </mxGeometry>
        </mxCell>
        <mxCell id="brtRXWUNe08EVccY7XU2-2" style="edgeStyle=orthogonalEdgeStyle;shape=connector;rounded=0;orthogonalLoop=1;jettySize=auto;html=1;exitX=0.57;exitY=0.8;exitDx=0;exitDy=0;exitPerimeter=0;entryX=0.77;entryY=0.73;entryDx=0;entryDy=0;entryPerimeter=0;strokeColor=#7F00FF;strokeWidth=2;align=center;verticalAlign=middle;fontFamily=Helvetica;fontSize=11;fontColor=default;labelBackgroundColor=default;endArrow=none;endFill=0;" edge="1" parent="dl8DAiWBKm6dLVGj8xog-10" source="9j41Xf2RF-thWnLo52nP-2" target="dl8DAiWBKm6dLVGj8xog-11">
          <mxGeometry relative="1" as="geometry">
            <Array as="points">
              <mxPoint x="125" y="50" />
              <mxPoint x="158" y="50" />
            </Array>
          </mxGeometry>
        </mxCell>
        <mxCell id="9j41Xf2RF-thWnLo52nP-9" value="" style="strokeColor=#666666;html=1;verticalLabelPosition=bottom;labelBackgroundColor=#ffffff;verticalAlign=top;outlineConnect=0;shadow=0;dashed=0;shape=mxgraph.rackGeneral.rackCabinet3;fillColor2=#f4f4f4;container=1;collapsible=0;childLayout=rack;allowGaps=1;marginLeft=33;marginRight=9;marginTop=21;marginBottom=22;textColor=#666666;numDisp=ascend;fontFamily=Helvetica;fontSize=11;fontColor=default;" parent="1" vertex="1">
          <mxGeometry x="120" y="120" width="204" height="370" as="geometry" />
        </mxCell>
        <mxCell id="9j41Xf2RF-thWnLo52nP-10" value="" style="strokeColor=#666666;html=1;labelPosition=right;align=left;spacingLeft=15;shadow=0;dashed=0;outlineConnect=0;shape=mxgraph.rack.dell.poweredge_r740;fontFamily=Helvetica;fontSize=11;fontColor=default;labelBackgroundColor=default;points=[[1,0.2,0,0,0],[1,0.4,0,0,0],[1,0.6,0,0,0],[1,0.8,0,0,0]];" parent="9j41Xf2RF-thWnLo52nP-9" vertex="1">
          <mxGeometry x="33" y="21" width="162" height="30" as="geometry" />
        </mxCell>
        <mxCell id="9j41Xf2RF-thWnLo52nP-11" value="" style="strokeColor=#666666;html=1;labelPosition=right;align=left;spacingLeft=15;shadow=0;dashed=0;outlineConnect=0;shape=mxgraph.rack.dell.poweredge_r740;fontFamily=Helvetica;fontSize=11;fontColor=default;labelBackgroundColor=default;points=[[1,0.2,0,0,0],[1,0.4,0,0,0],[1,0.6,0,0,0],[1,0.8,0,0,0]];" parent="9j41Xf2RF-thWnLo52nP-9" vertex="1">
          <mxGeometry x="33" y="51" width="162" height="30" as="geometry" />
        </mxCell>
        <mxCell id="9j41Xf2RF-thWnLo52nP-13" value="" style="shape=mxgraph.rack.apc.apc_smart_ups_5000_va_5u;html=1;labelPosition=right;align=left;spacingLeft=15;dashed=0;shadow=0;fillColor=#ffffff;" parent="9j41Xf2RF-thWnLo52nP-9" vertex="1">
          <mxGeometry x="33" y="196" width="162" height="74" as="geometry" />
        </mxCell>
        <mxCell id="9j41Xf2RF-thWnLo52nP-12" value="" style="shape=mxgraph.rack.apc.apc_smart_ups_5000_va_5u;html=1;labelPosition=right;align=left;spacingLeft=15;dashed=0;shadow=0;fillColor=#ffffff;" parent="9j41Xf2RF-thWnLo52nP-9" vertex="1">
          <mxGeometry x="33" y="270" width="162" height="74" as="geometry" />
        </mxCell>
        <mxCell id="9j41Xf2RF-thWnLo52nP-14" style="edgeStyle=orthogonalEdgeStyle;shape=link;rounded=0;orthogonalLoop=1;jettySize=auto;html=1;exitX=1;exitY=0.2;exitDx=0;exitDy=0;exitPerimeter=0;entryX=0.23;entryY=0.2;entryDx=0;entryDy=0;entryPerimeter=0;strokeColor=#00FF80;strokeWidth=1;align=center;verticalAlign=middle;fontFamily=Helvetica;fontSize=11;fontColor=default;labelBackgroundColor=default;endArrow=none;endFill=0;" parent="1" source="9j41Xf2RF-thWnLo52nP-10" target="dl8DAiWBKm6dLVGj8xog-12" edge="1">
          <mxGeometry relative="1" as="geometry" />
        </mxCell>
        <mxCell id="9j41Xf2RF-thWnLo52nP-15" style="edgeStyle=orthogonalEdgeStyle;shape=link;rounded=0;orthogonalLoop=1;jettySize=auto;html=1;exitX=1;exitY=0.4;exitDx=0;exitDy=0;exitPerimeter=0;entryX=0.19;entryY=0.2;entryDx=0;entryDy=0;entryPerimeter=0;strokeColor=#00FF80;strokeWidth=1;align=center;verticalAlign=middle;fontFamily=Helvetica;fontSize=11;fontColor=default;labelBackgroundColor=default;endArrow=none;endFill=0;" parent="1" source="9j41Xf2RF-thWnLo52nP-10" target="dl8DAiWBKm6dLVGj8xog-12" edge="1">
          <mxGeometry relative="1" as="geometry" />
        </mxCell>
        <mxCell id="9j41Xf2RF-thWnLo52nP-16" style="edgeStyle=orthogonalEdgeStyle;shape=link;rounded=0;orthogonalLoop=1;jettySize=auto;html=1;exitX=1;exitY=0.6;exitDx=0;exitDy=0;exitPerimeter=0;entryX=0.14;entryY=0.8;entryDx=0;entryDy=0;entryPerimeter=0;strokeColor=#00FF80;strokeWidth=1;align=center;verticalAlign=middle;fontFamily=Helvetica;fontSize=11;fontColor=default;labelBackgroundColor=default;endArrow=none;endFill=0;" parent="1" source="9j41Xf2RF-thWnLo52nP-10" target="dl8DAiWBKm6dLVGj8xog-15" edge="1">
          <mxGeometry relative="1" as="geometry" />
        </mxCell>
        <mxCell id="9j41Xf2RF-thWnLo52nP-17" style="edgeStyle=orthogonalEdgeStyle;shape=link;rounded=0;orthogonalLoop=1;jettySize=auto;html=1;exitX=1;exitY=0.8;exitDx=0;exitDy=0;exitPerimeter=0;entryX=0.1;entryY=0.8;entryDx=0;entryDy=0;entryPerimeter=0;strokeColor=#00FF80;strokeWidth=1;align=center;verticalAlign=middle;fontFamily=Helvetica;fontSize=11;fontColor=default;labelBackgroundColor=default;endArrow=none;endFill=0;" parent="1" source="9j41Xf2RF-thWnLo52nP-10" target="dl8DAiWBKm6dLVGj8xog-15" edge="1">
          <mxGeometry relative="1" as="geometry" />
        </mxCell>
        <mxCell id="9j41Xf2RF-thWnLo52nP-19" style="edgeStyle=orthogonalEdgeStyle;shape=link;rounded=0;orthogonalLoop=1;jettySize=auto;html=1;exitX=1;exitY=0.2;exitDx=0;exitDy=0;exitPerimeter=0;entryX=0.47;entryY=0.2;entryDx=0;entryDy=0;entryPerimeter=0;strokeColor=#66B2FF;strokeWidth=1;align=center;verticalAlign=middle;fontFamily=Helvetica;fontSize=11;fontColor=default;labelBackgroundColor=default;endArrow=none;endFill=0;" parent="1" source="9j41Xf2RF-thWnLo52nP-11" target="dl8DAiWBKm6dLVGj8xog-12" edge="1">
          <mxGeometry relative="1" as="geometry" />
        </mxCell>
        <mxCell id="9j41Xf2RF-thWnLo52nP-20" style="edgeStyle=orthogonalEdgeStyle;shape=link;rounded=0;orthogonalLoop=1;jettySize=auto;html=1;exitX=1;exitY=0.4;exitDx=0;exitDy=0;exitPerimeter=0;entryX=0.43;entryY=0.2;entryDx=0;entryDy=0;entryPerimeter=0;strokeColor=#66B2FF;strokeWidth=1;align=center;verticalAlign=middle;fontFamily=Helvetica;fontSize=11;fontColor=default;labelBackgroundColor=default;endArrow=none;endFill=0;" parent="1" source="9j41Xf2RF-thWnLo52nP-11" target="dl8DAiWBKm6dLVGj8xog-12" edge="1">
          <mxGeometry relative="1" as="geometry" />
        </mxCell>
        <mxCell id="9j41Xf2RF-thWnLo52nP-21" style="edgeStyle=orthogonalEdgeStyle;shape=link;rounded=0;orthogonalLoop=1;jettySize=auto;html=1;exitX=1;exitY=0.6;exitDx=0;exitDy=0;exitPerimeter=0;entryX=0.38;entryY=0.8;entryDx=0;entryDy=0;entryPerimeter=0;strokeColor=#66B2FF;strokeWidth=1;align=center;verticalAlign=middle;fontFamily=Helvetica;fontSize=11;fontColor=default;labelBackgroundColor=default;endArrow=none;endFill=0;" parent="1" source="9j41Xf2RF-thWnLo52nP-11" target="dl8DAiWBKm6dLVGj8xog-15" edge="1">
          <mxGeometry relative="1" as="geometry" />
        </mxCell>
        <mxCell id="9j41Xf2RF-thWnLo52nP-22" style="edgeStyle=orthogonalEdgeStyle;shape=link;rounded=0;orthogonalLoop=1;jettySize=auto;html=1;exitX=1;exitY=0.8;exitDx=0;exitDy=0;exitPerimeter=0;entryX=0.34;entryY=0.8;entryDx=0;entryDy=0;entryPerimeter=0;strokeColor=#66B2FF;strokeWidth=1;align=center;verticalAlign=middle;fontFamily=Helvetica;fontSize=11;fontColor=default;labelBackgroundColor=default;endArrow=none;endFill=0;" parent="1" source="9j41Xf2RF-thWnLo52nP-11" target="dl8DAiWBKm6dLVGj8xog-15" edge="1">
          <mxGeometry relative="1" as="geometry" />
        </mxCell>
        <mxCell id="9j41Xf2RF-thWnLo52nP-29" style="edgeStyle=orthogonalEdgeStyle;shape=connector;rounded=0;orthogonalLoop=1;jettySize=auto;html=1;exitX=1;exitY=0.33;exitDx=0;exitDy=0;exitPerimeter=0;entryX=1;entryY=1;entryDx=0;entryDy=0;entryPerimeter=0;strokeColor=#0066CC;strokeWidth=2;align=center;verticalAlign=middle;fontFamily=Helvetica;fontSize=11;fontColor=default;labelBackgroundColor=default;endArrow=none;endFill=0;" parent="1" source="dl8DAiWBKm6dLVGj8xog-4" target="dl8DAiWBKm6dLVGj8xog-11" edge="1">
          <mxGeometry relative="1" as="geometry">
            <Array as="points">
              <mxPoint x="740" y="581" />
              <mxPoint x="740" y="171" />
            </Array>
          </mxGeometry>
        </mxCell>
        <mxCell id="9j41Xf2RF-thWnLo52nP-30" style="edgeStyle=orthogonalEdgeStyle;shape=connector;rounded=0;orthogonalLoop=1;jettySize=auto;html=1;exitX=1;exitY=0.67;exitDx=0;exitDy=0;exitPerimeter=0;entryX=1;entryY=0.8;entryDx=0;entryDy=0;entryPerimeter=0;strokeColor=#0066CC;strokeWidth=2;align=center;verticalAlign=middle;fontFamily=Helvetica;fontSize=11;fontColor=default;labelBackgroundColor=default;endArrow=none;endFill=0;" parent="1" source="dl8DAiWBKm6dLVGj8xog-4" target="dl8DAiWBKm6dLVGj8xog-11" edge="1">
          <mxGeometry relative="1" as="geometry">
            <Array as="points">
              <mxPoint x="750" y="591" />
              <mxPoint x="750" y="165" />
            </Array>
          </mxGeometry>
        </mxCell>
        <mxCell id="9j41Xf2RF-thWnLo52nP-31" style="edgeStyle=orthogonalEdgeStyle;shape=connector;rounded=0;orthogonalLoop=1;jettySize=auto;html=1;exitX=1;exitY=0.33;exitDx=0;exitDy=0;exitPerimeter=0;entryX=1;entryY=0.6;entryDx=0;entryDy=0;entryPerimeter=0;strokeColor=#FF8000;strokeWidth=2;align=center;verticalAlign=middle;fontFamily=Helvetica;fontSize=11;fontColor=default;labelBackgroundColor=default;endArrow=none;endFill=0;" parent="1" source="dl8DAiWBKm6dLVGj8xog-7" target="dl8DAiWBKm6dLVGj8xog-11" edge="1">
          <mxGeometry relative="1" as="geometry">
            <Array as="points">
              <mxPoint x="760" y="771" />
              <mxPoint x="760" y="159" />
            </Array>
          </mxGeometry>
        </mxCell>
        <mxCell id="9j41Xf2RF-thWnLo52nP-32" style="edgeStyle=orthogonalEdgeStyle;shape=connector;rounded=0;orthogonalLoop=1;jettySize=auto;html=1;exitX=1;exitY=0.4;exitDx=0;exitDy=0;exitPerimeter=0;entryX=1;entryY=0.67;entryDx=0;entryDy=0;entryPerimeter=0;strokeColor=#FF8000;strokeWidth=2;align=center;verticalAlign=middle;fontFamily=Helvetica;fontSize=11;fontColor=default;labelBackgroundColor=default;endArrow=none;endFill=0;" parent="1" source="dl8DAiWBKm6dLVGj8xog-11" target="dl8DAiWBKm6dLVGj8xog-7" edge="1">
          <mxGeometry relative="1" as="geometry">
            <Array as="points">
              <mxPoint x="770" y="153" />
              <mxPoint x="770" y="781" />
            </Array>
          </mxGeometry>
        </mxCell>
        <mxCell id="9j41Xf2RF-thWnLo52nP-38" value="Salle serveur" style="text;html=1;align=center;verticalAlign=middle;whiteSpace=wrap;rounded=0;fontFamily=Helvetica;fontSize=11;fontColor=default;labelBackgroundColor=none;fontStyle=1" parent="1" vertex="1">
          <mxGeometry x="70" y="80" width="380" height="30" as="geometry" />
        </mxCell>
        <mxCell id="9j41Xf2RF-thWnLo52nP-39" value="Bureaux" style="text;html=1;align=center;verticalAlign=middle;whiteSpace=wrap;rounded=0;fontFamily=Helvetica;fontSize=11;fontColor=default;labelBackgroundColor=none;fontStyle=1" parent="1" vertex="1">
          <mxGeometry x="70" y="540" width="380" height="30" as="geometry" />
        </mxCell>
        <mxCell id="9j41Xf2RF-thWnLo52nP-40" value="Atelier fabrication 01" style="text;html=1;align=center;verticalAlign=middle;whiteSpace=wrap;rounded=0;fontFamily=Helvetica;fontSize=11;fontColor=default;labelBackgroundColor=none;fontStyle=1" parent="1" vertex="1">
          <mxGeometry x="70" y="745" width="380" height="30" as="geometry" />
        </mxCell>
        <mxCell id="dfdCdgFeH61obHp5bPQe-2" value="" style="points=[[0.13,0.02,0],[0.5,0,0],[0.87,0.02,0],[0.885,0.4,0],[0.985,0.985,0],[0.5,1,0],[0.015,0.985,0],[0.115,0.4,0]];verticalLabelPosition=bottom;sketch=0;html=1;verticalAlign=top;aspect=fixed;align=center;pointerEvents=1;shape=mxgraph.cisco19.laptop;fillColor=#005073;strokeColor=none;" parent="1" vertex="1">
          <mxGeometry x="80" y="565" width="50" height="35" as="geometry" />
        </mxCell>
        <mxCell id="dfdCdgFeH61obHp5bPQe-3" value="" style="points=[[0.13,0.02,0],[0.5,0,0],[0.87,0.02,0],[0.885,0.4,0],[0.985,0.985,0],[0.5,1,0],[0.015,0.985,0],[0.115,0.4,0]];verticalLabelPosition=bottom;sketch=0;html=1;verticalAlign=top;aspect=fixed;align=center;pointerEvents=1;shape=mxgraph.cisco19.laptop;fillColor=#005073;strokeColor=none;" parent="1" vertex="1">
          <mxGeometry x="140" y="565" width="50" height="35" as="geometry" />
        </mxCell>
        <mxCell id="dfdCdgFeH61obHp5bPQe-4" value="" style="points=[[0.13,0.02,0],[0.5,0,0],[0.87,0.02,0],[0.885,0.4,0],[0.985,0.985,0],[0.5,1,0],[0.015,0.985,0],[0.115,0.4,0]];verticalLabelPosition=bottom;sketch=0;html=1;verticalAlign=top;aspect=fixed;align=center;pointerEvents=1;shape=mxgraph.cisco19.laptop;fillColor=#005073;strokeColor=none;" parent="1" vertex="1">
          <mxGeometry x="140" y="612.5" width="50" height="35" as="geometry" />
        </mxCell>
        <mxCell id="dfdCdgFeH61obHp5bPQe-5" value="" style="points=[[0.13,0.02,0],[0.5,0,0],[0.87,0.02,0],[0.885,0.4,0],[0.985,0.985,0],[0.5,1,0],[0.015,0.985,0],[0.115,0.4,0]];verticalLabelPosition=bottom;sketch=0;html=1;verticalAlign=top;aspect=fixed;align=center;pointerEvents=1;shape=mxgraph.cisco19.laptop;fillColor=#005073;strokeColor=none;" parent="1" vertex="1">
          <mxGeometry x="80" y="612.5" width="50" height="35" as="geometry" />
        </mxCell>
        <mxCell id="dfdCdgFeH61obHp5bPQe-6" value="" style="points=[[0.13,0.02,0],[0.5,0,0],[0.87,0.02,0],[0.885,0.4,0],[0.985,0.985,0],[0.5,1,0],[0.015,0.985,0],[0.115,0.4,0]];verticalLabelPosition=bottom;sketch=0;html=1;verticalAlign=top;aspect=fixed;align=center;pointerEvents=1;shape=mxgraph.cisco19.laptop;fillColor=#005073;strokeColor=none;" parent="1" vertex="1">
          <mxGeometry x="140" y="660" width="50" height="35" as="geometry" />
        </mxCell>
        <mxCell id="dfdCdgFeH61obHp5bPQe-7" value="" style="points=[[0.13,0.02,0],[0.5,0,0],[0.87,0.02,0],[0.885,0.4,0],[0.985,0.985,0],[0.5,1,0],[0.015,0.985,0],[0.115,0.4,0]];verticalLabelPosition=bottom;sketch=0;html=1;verticalAlign=top;aspect=fixed;align=center;pointerEvents=1;shape=mxgraph.cisco19.laptop;fillColor=#005073;strokeColor=none;" parent="1" vertex="1">
          <mxGeometry x="80" y="660" width="50" height="35" as="geometry" />
        </mxCell>
        <mxCell id="dfdCdgFeH61obHp5bPQe-14" value="" style="points=[[0.13,0.02,0],[0.5,0,0],[0.87,0.02,0],[0.885,0.4,0],[0.985,0.985,0],[0.5,1,0],[0.015,0.985,0],[0.115,0.4,0]];verticalLabelPosition=bottom;sketch=0;html=1;verticalAlign=top;aspect=fixed;align=center;pointerEvents=1;shape=mxgraph.cisco19.laptop;fillColor=#005073;strokeColor=none;" parent="1" vertex="1">
          <mxGeometry x="260" y="565" width="50" height="35" as="geometry" />
        </mxCell>
        <mxCell id="dfdCdgFeH61obHp5bPQe-15" value="" style="points=[[0.13,0.02,0],[0.5,0,0],[0.87,0.02,0],[0.885,0.4,0],[0.985,0.985,0],[0.5,1,0],[0.015,0.985,0],[0.115,0.4,0]];verticalLabelPosition=bottom;sketch=0;html=1;verticalAlign=top;aspect=fixed;align=center;pointerEvents=1;shape=mxgraph.cisco19.laptop;fillColor=#005073;strokeColor=none;" parent="1" vertex="1">
          <mxGeometry x="200" y="565" width="50" height="35" as="geometry" />
        </mxCell>
        <mxCell id="dfdCdgFeH61obHp5bPQe-16" value="" style="points=[[0.13,0.02,0],[0.5,0,0],[0.87,0.02,0],[0.885,0.4,0],[0.985,0.985,0],[0.5,1,0],[0.015,0.985,0],[0.115,0.4,0]];verticalLabelPosition=bottom;sketch=0;html=1;verticalAlign=top;aspect=fixed;align=center;pointerEvents=1;shape=mxgraph.cisco19.laptop;fillColor=#005073;strokeColor=none;" parent="1" vertex="1">
          <mxGeometry x="260" y="612.5" width="50" height="35" as="geometry" />
        </mxCell>
        <mxCell id="dfdCdgFeH61obHp5bPQe-17" value="" style="points=[[0.13,0.02,0],[0.5,0,0],[0.87,0.02,0],[0.885,0.4,0],[0.985,0.985,0],[0.5,1,0],[0.015,0.985,0],[0.115,0.4,0]];verticalLabelPosition=bottom;sketch=0;html=1;verticalAlign=top;aspect=fixed;align=center;pointerEvents=1;shape=mxgraph.cisco19.laptop;fillColor=#005073;strokeColor=none;" parent="1" vertex="1">
          <mxGeometry x="200" y="612.5" width="50" height="35" as="geometry" />
        </mxCell>
        <mxCell id="dfdCdgFeH61obHp5bPQe-18" value="" style="points=[[0.13,0.02,0],[0.5,0,0],[0.87,0.02,0],[0.885,0.4,0],[0.985,0.985,0],[0.5,1,0],[0.015,0.985,0],[0.115,0.4,0]];verticalLabelPosition=bottom;sketch=0;html=1;verticalAlign=top;aspect=fixed;align=center;pointerEvents=1;shape=mxgraph.cisco19.laptop;fillColor=#005073;strokeColor=none;" parent="1" vertex="1">
          <mxGeometry x="200" y="660" width="50" height="35" as="geometry" />
        </mxCell>
        <mxCell id="dfdCdgFeH61obHp5bPQe-19" value="" style="points=[[0.13,0.02,0],[0.5,0,0],[0.87,0.02,0],[0.885,0.4,0],[0.985,0.985,0],[0.5,1,0],[0.015,0.985,0],[0.115,0.4,0]];verticalLabelPosition=bottom;sketch=0;html=1;verticalAlign=top;aspect=fixed;align=center;pointerEvents=1;shape=mxgraph.cisco19.laptop;fillColor=#005073;strokeColor=none;" parent="1" vertex="1">
          <mxGeometry x="260" y="660" width="50" height="35" as="geometry" />
        </mxCell>
        <mxCell id="dfdCdgFeH61obHp5bPQe-20" value="" style="points=[[0.13,0.02,0],[0.5,0,0],[0.87,0.02,0],[0.885,0.4,0],[0.985,0.985,0],[0.5,1,0],[0.015,0.985,0],[0.115,0.4,0]];verticalLabelPosition=bottom;sketch=0;html=1;verticalAlign=top;aspect=fixed;align=center;pointerEvents=1;shape=mxgraph.cisco19.laptop;fillColor=#005073;strokeColor=none;" parent="1" vertex="1">
          <mxGeometry x="320" y="565" width="50" height="35" as="geometry" />
        </mxCell>
        <mxCell id="dfdCdgFeH61obHp5bPQe-21" value="" style="points=[[0.13,0.02,0],[0.5,0,0],[0.87,0.02,0],[0.885,0.4,0],[0.985,0.985,0],[0.5,1,0],[0.015,0.985,0],[0.115,0.4,0]];verticalLabelPosition=bottom;sketch=0;html=1;verticalAlign=top;aspect=fixed;align=center;pointerEvents=1;shape=mxgraph.cisco19.laptop;fillColor=#005073;strokeColor=none;" parent="1" vertex="1">
          <mxGeometry x="320" y="612.5" width="50" height="35" as="geometry" />
        </mxCell>
        <mxCell id="dfdCdgFeH61obHp5bPQe-22" value="" style="points=[[0.13,0.02,0],[0.5,0,0],[0.87,0.02,0],[0.885,0.4,0],[0.985,0.985,0],[0.5,1,0],[0.015,0.985,0],[0.115,0.4,0]];verticalLabelPosition=bottom;sketch=0;html=1;verticalAlign=top;aspect=fixed;align=center;pointerEvents=1;shape=mxgraph.cisco19.laptop;fillColor=#005073;strokeColor=none;" parent="1" vertex="1">
          <mxGeometry x="320" y="660" width="50" height="35" as="geometry" />
        </mxCell>
        <mxCell id="dfdCdgFeH61obHp5bPQe-23" value="" style="points=[[0.03,0.03,0],[0.5,0,0],[0.97,0.03,0],[1,0.4,0],[0.97,0.745,0],[0.5,1,0],[0.03,0.745,0],[0,0.4,0]];verticalLabelPosition=bottom;sketch=0;html=1;verticalAlign=top;aspect=fixed;align=center;pointerEvents=1;shape=mxgraph.cisco19.workstation;fillColor=#005073;strokeColor=none;" parent="1" vertex="1">
          <mxGeometry x="324" y="775" width="50" height="40" as="geometry" />
        </mxCell>
        <mxCell id="brtRXWUNe08EVccY7XU2-3" value="" style="rounded=1;whiteSpace=wrap;html=1;fontFamily=Helvetica;fontSize=11;labelBackgroundColor=default;fillColor=#e1d5e7;arcSize=3;strokeColor=#9673a6;" vertex="1" parent="1">
          <mxGeometry x="40" y="920" width="690" height="221" as="geometry" />
        </mxCell>
        <mxCell id="brtRXWUNe08EVccY7XU2-4" value="Unité de fabrication 3" style="rounded=1;whiteSpace=wrap;html=1;fontFamily=Helvetica;fontSize=11;labelBackgroundColor=default;fillColor=#FFCCE6;arcSize=3;strokeColor=#9673a6;align=left;" vertex="1" parent="1">
          <mxGeometry x="50" y="960" width="390" height="40" as="geometry" />
        </mxCell>
        <mxCell id="brtRXWUNe08EVccY7XU2-7" value="" style="strokeColor=#666666;html=1;verticalLabelPosition=bottom;labelBackgroundColor=#ffffff;verticalAlign=top;outlineConnect=0;shadow=0;dashed=0;shape=mxgraph.rackGeneral.rackCabinet3;fillColor2=#f4f4f4;container=1;collapsible=0;childLayout=rack;allowGaps=1;marginLeft=33;marginRight=9;marginTop=21;marginBottom=22;textColor=#666666;numDisp=ascend;" vertex="1" parent="1">
          <mxGeometry x="520" y="961" width="204" height="160" as="geometry" />
        </mxCell>
        <mxCell id="brtRXWUNe08EVccY7XU2-8" value="" style="strokeColor=#666666;html=1;labelPosition=right;align=left;spacingLeft=15;shadow=0;dashed=0;outlineConnect=0;shape=mxgraph.rack.general.cat5e_enhanced_patch_panel_48_ports;points=[[0.86,0.8,0,0,0],[0.91,0.8,0,0,0],[1,0.33,0,0,0],[1,0.67,0,0,0]];" vertex="1" parent="brtRXWUNe08EVccY7XU2-7">
          <mxGeometry x="33" y="21" width="162" height="30" as="geometry" />
        </mxCell>
        <mxCell id="brtRXWUNe08EVccY7XU2-9" value="" style="html=1;verticalLabelPosition=bottom;verticalAlign=top;outlineConnect=0;shadow=0;dashed=0;shape=mxgraph.rack.hpe_aruba.switches.j9781a_2530_48_front;points=[[0.12,0.6,0,0,0],[0.23,0.6,0,0,0],[0.34,0.6,0,0,0],[0.45,0.6,0,0,0],[0.56,0.6,0,0,0],[0.67,0.6,0,0,0],[0.78,0.6,0,0,0],[0.86,0.6,0,0,0],[0.93,0.8,0,0,0],[0.96,0.8,0,0,0]];" vertex="1" parent="brtRXWUNe08EVccY7XU2-7">
          <mxGeometry x="33" y="51" width="162" height="15" as="geometry" />
        </mxCell>
        <mxCell id="brtRXWUNe08EVccY7XU2-10" value="" style="shape=mxgraph.rack.apc.apc_smart_ups_5000_va_5u;html=1;labelPosition=right;align=left;spacingLeft=15;dashed=0;shadow=0;fillColor=#ffffff;" vertex="1" parent="brtRXWUNe08EVccY7XU2-7">
          <mxGeometry x="33" y="66" width="162" height="74" as="geometry" />
        </mxCell>
        <mxCell id="brtRXWUNe08EVccY7XU2-11" style="edgeStyle=orthogonalEdgeStyle;shape=connector;rounded=0;orthogonalLoop=1;jettySize=auto;html=1;exitX=0.91;exitY=0.8;exitDx=0;exitDy=0;exitPerimeter=0;entryX=0.96;entryY=0.8;entryDx=0;entryDy=0;entryPerimeter=0;strokeColor=#7F00FF;strokeWidth=2;align=center;verticalAlign=middle;fontFamily=Helvetica;fontSize=11;fontColor=default;labelBackgroundColor=default;endArrow=none;endFill=0;" edge="1" parent="brtRXWUNe08EVccY7XU2-7" source="brtRXWUNe08EVccY7XU2-8" target="brtRXWUNe08EVccY7XU2-9">
          <mxGeometry relative="1" as="geometry" />
        </mxCell>
        <mxCell id="brtRXWUNe08EVccY7XU2-12" style="edgeStyle=orthogonalEdgeStyle;shape=connector;rounded=0;orthogonalLoop=1;jettySize=auto;html=1;exitX=0.86;exitY=0.8;exitDx=0;exitDy=0;exitPerimeter=0;entryX=0.93;entryY=0.8;entryDx=0;entryDy=0;entryPerimeter=0;strokeColor=#7F00FF;strokeWidth=2;align=center;verticalAlign=middle;fontFamily=Helvetica;fontSize=11;fontColor=default;labelBackgroundColor=default;endArrow=none;endFill=0;" edge="1" parent="brtRXWUNe08EVccY7XU2-7" source="brtRXWUNe08EVccY7XU2-8" target="brtRXWUNe08EVccY7XU2-9">
          <mxGeometry relative="1" as="geometry">
            <Array as="points">
              <mxPoint x="172" y="50" />
              <mxPoint x="184" y="50" />
            </Array>
          </mxGeometry>
        </mxCell>
        <mxCell id="brtRXWUNe08EVccY7XU2-13" value="Atelier fabrication 02" style="text;html=1;align=center;verticalAlign=middle;whiteSpace=wrap;rounded=0;fontFamily=Helvetica;fontSize=11;fontColor=default;labelBackgroundColor=none;fontStyle=1" vertex="1" parent="1">
          <mxGeometry x="70" y="930" width="380" height="30" as="geometry" />
        </mxCell>
        <mxCell id="brtRXWUNe08EVccY7XU2-16" value="" style="points=[[0.03,0.03,0],[0.5,0,0],[0.97,0.03,0],[1,0.4,0],[0.97,0.745,0],[0.5,1,0],[0.03,0.745,0],[0,0.4,0]];verticalLabelPosition=bottom;sketch=0;html=1;verticalAlign=top;aspect=fixed;align=center;pointerEvents=1;shape=mxgraph.cisco19.workstation;fillColor=#005073;strokeColor=none;" vertex="1" parent="1">
          <mxGeometry x="324" y="960" width="50" height="40" as="geometry" />
        </mxCell>
        <mxCell id="brtRXWUNe08EVccY7XU2-17" style="edgeStyle=orthogonalEdgeStyle;shape=connector;rounded=0;orthogonalLoop=1;jettySize=auto;html=1;exitX=1;exitY=0.33;exitDx=0;exitDy=0;exitPerimeter=0;entryX=1;entryY=0.2;entryDx=0;entryDy=0;entryPerimeter=0;strokeColor=#7F00FF;strokeWidth=2;align=center;verticalAlign=middle;fontFamily=Helvetica;fontSize=11;fontColor=default;labelBackgroundColor=default;endArrow=none;endFill=0;" edge="1" parent="1" source="brtRXWUNe08EVccY7XU2-8" target="dl8DAiWBKm6dLVGj8xog-11">
          <mxGeometry relative="1" as="geometry">
            <Array as="points">
              <mxPoint x="780" y="992" />
              <mxPoint x="780" y="147" />
            </Array>
          </mxGeometry>
        </mxCell>
        <mxCell id="brtRXWUNe08EVccY7XU2-18" style="edgeStyle=orthogonalEdgeStyle;shape=connector;rounded=0;orthogonalLoop=1;jettySize=auto;html=1;exitX=1;exitY=0;exitDx=0;exitDy=0;exitPerimeter=0;entryX=1;entryY=0.67;entryDx=0;entryDy=0;entryPerimeter=0;strokeColor=#7F00FF;strokeWidth=2;align=center;verticalAlign=middle;fontFamily=Helvetica;fontSize=11;fontColor=default;labelBackgroundColor=default;endArrow=none;endFill=0;" edge="1" parent="1" source="dl8DAiWBKm6dLVGj8xog-11" target="brtRXWUNe08EVccY7XU2-8">
          <mxGeometry relative="1" as="geometry">
            <Array as="points">
              <mxPoint x="715" y="140" />
              <mxPoint x="790" y="140" />
              <mxPoint x="790" y="1002" />
            </Array>
          </mxGeometry>
        </mxCell>
        <mxCell id="u8hhfCy0Zjg-9dBywPTO-7" value="" style="strokeColor=#666666;html=1;verticalLabelPosition=bottom;labelBackgroundColor=#ffffff;verticalAlign=top;outlineConnect=0;shadow=0;dashed=0;shape=mxgraph.rackGeneral.rackCabinet3;fillColor2=#f4f4f4;container=1;collapsible=0;childLayout=rack;allowGaps=1;marginLeft=33;marginRight=9;marginTop=21;marginBottom=22;textColor=#666666;numDisp=ascend;fontFamily=Helvetica;fontSize=11;fontColor=default;" vertex="1" parent="1">
          <mxGeometry x="240" y="1020" width="204" height="100" as="geometry" />
        </mxCell>
        <mxCell id="u8hhfCy0Zjg-9dBywPTO-8" value="" style="strokeColor=#666666;html=1;labelPosition=right;align=left;spacingLeft=15;shadow=0;dashed=0;outlineConnect=0;shape=mxgraph.rack.dell.poweredge_r740;fontFamily=Helvetica;fontSize=11;fontColor=default;labelBackgroundColor=default;points=[[1,0.2,0,0,0],[1,0.4,0,0,0],[1,0.6,0,0,0],[1,0.8,0,0,0]];" vertex="1" parent="u8hhfCy0Zjg-9dBywPTO-7">
          <mxGeometry x="33" y="21" width="162" height="30" as="geometry" />
        </mxCell>
        <mxCell id="u8hhfCy0Zjg-9dBywPTO-14" value="" style="shape=mxgraph.rack.apc.apc_smart_ups_750_va_1u;html=1;labelPosition=right;align=left;spacingLeft=15;dashed=0;shadow=0;fillColor=#ffffff;fontFamily=Helvetica;fontSize=11;fontColor=default;labelBackgroundColor=default;" vertex="1" parent="u8hhfCy0Zjg-9dBywPTO-7">
          <mxGeometry x="33" y="51" width="162" height="15" as="geometry" />
        </mxCell>
        <mxCell id="u8hhfCy0Zjg-9dBywPTO-15" value="" style="shape=mxgraph.rack.apc.apc_smart_ups_750_va_1u;html=1;labelPosition=right;align=left;spacingLeft=15;dashed=0;shadow=0;fillColor=#ffffff;fontFamily=Helvetica;fontSize=11;fontColor=default;labelBackgroundColor=default;" vertex="1" parent="u8hhfCy0Zjg-9dBywPTO-7">
          <mxGeometry x="33" y="66" width="162" height="15" as="geometry" />
        </mxCell>
      </root>
    </mxGraphModel>
  </diagram>
  <diagram id="Vb0J09QpD8mD47djePr3" name="Topologie logique">
    <mxGraphModel dx="1621" dy="975" grid="1" gridSize="10" guides="1" tooltips="1" connect="1" arrows="1" fold="1" page="1" pageScale="1" pageWidth="827" pageHeight="1169" math="0" shadow="0">
      <root>
        <mxCell id="0" />
        <mxCell id="1" parent="0" />
        <mxCell id="BPKf5k9JKoXHZFEPVZaz-1" value="" style="rounded=1;whiteSpace=wrap;html=1;arcSize=1;" vertex="1" parent="1">
          <mxGeometry x="20" y="20" width="790" height="1130" as="geometry" />
        </mxCell>
        <mxCell id="BPKf5k9JKoXHZFEPVZaz-2" value="1.1 - TP fil rouge - Partie 2 - Annexe 2 - Topologie réseau logique" style="rounded=1;whiteSpace=wrap;html=1;fillColor=#CC99FF;strokeColor=#9673a6;fontColor=#FFFFFF;fontSize=14;fontStyle=1" vertex="1" parent="1">
          <mxGeometry x="60" y="30" width="710" height="30" as="geometry" />
        </mxCell>
        <mxCell id="68C9dVgnsqzb5D2HW6kB-3" value="" style="rounded=1;whiteSpace=wrap;html=1;fontFamily=Helvetica;fontSize=11;labelBackgroundColor=default;fillColor=#e1d5e7;strokeColor=#9673a6;arcSize=3;" vertex="1" parent="1">
          <mxGeometry x="347.5" y="560" width="396" height="320" as="geometry" />
        </mxCell>
        <mxCell id="68C9dVgnsqzb5D2HW6kB-2" value="" style="rounded=1;whiteSpace=wrap;html=1;fontFamily=Helvetica;fontSize=11;labelBackgroundColor=default;fillColor=#ffe6cc;strokeColor=#d79b00;arcSize=5;" vertex="1" parent="1">
          <mxGeometry x="116.72" y="590" width="216.57" height="290" as="geometry" />
        </mxCell>
        <mxCell id="68C9dVgnsqzb5D2HW6kB-1" value="" style="rounded=1;whiteSpace=wrap;html=1;fontFamily=Helvetica;fontSize=11;labelBackgroundColor=default;fillColor=#dae8fc;strokeColor=#6c8ebf;arcSize=6;" vertex="1" parent="1">
          <mxGeometry x="40" y="120" width="216.57" height="270" as="geometry" />
        </mxCell>
        <mxCell id="iux-Q9tw-PWz4QpzHmxv-1" value="" style="rounded=1;whiteSpace=wrap;html=1;fontFamily=Helvetica;fontSize=11;labelBackgroundColor=default;fillColor=#d5e8d4;strokeColor=#82b366;arcSize=7;" vertex="1" parent="1">
          <mxGeometry x="287.5" y="120" width="170" height="270" as="geometry" />
        </mxCell>
        <mxCell id="7X1ovpzGRq5tquFaozXl-1" value="" style="sketch=0;points=[[0.015,0.015,0],[0.985,0.015,0],[0.985,0.985,0],[0.015,0.985,0],[0.25,0,0],[0.5,0,0],[0.75,0,0],[1,0.25,0],[1,0.5,0],[1,0.75,0],[0.75,1,0],[0.5,1,0],[0.25,1,0],[0,0.75,0],[0,0.5,0],[0,0.25,0]];verticalLabelPosition=bottom;html=1;verticalAlign=top;aspect=fixed;align=center;pointerEvents=1;shape=mxgraph.cisco19.rect;prIcon=l3_switch;fillColor=#FAFAFA;strokeColor=#005073;fontFamily=Helvetica;fontSize=11;fontColor=default;labelBackgroundColor=default;" vertex="1" parent="1">
          <mxGeometry x="347.5" y="280" width="50" height="50" as="geometry" />
        </mxCell>
        <mxCell id="7X1ovpzGRq5tquFaozXl-2" value="" style="sketch=0;points=[[0.015,0.015,0],[0.985,0.015,0],[0.985,0.985,0],[0.015,0.985,0],[0.25,0,0],[0.5,0,0],[0.75,0,0],[1,0.25,0],[1,0.5,0],[1,0.75,0],[0.75,1,0],[0.5,1,0],[0.25,1,0],[0,0.75,0],[0,0.5,0],[0,0.25,0]];verticalLabelPosition=bottom;html=1;verticalAlign=top;aspect=fixed;align=center;pointerEvents=1;shape=mxgraph.cisco19.rect;prIcon=l2_switch;fillColor=#FAFAFA;strokeColor=#005073;fontFamily=Helvetica;fontSize=11;fontColor=default;labelBackgroundColor=default;" vertex="1" parent="1">
          <mxGeometry x="200" y="280" width="50" height="50" as="geometry" />
        </mxCell>
        <mxCell id="7X1ovpzGRq5tquFaozXl-3" value="" style="sketch=0;points=[[0.015,0.015,0],[0.985,0.015,0],[0.985,0.985,0],[0.015,0.985,0],[0.25,0,0],[0.5,0,0],[0.75,0,0],[1,0.25,0],[1,0.5,0],[1,0.75,0],[0.75,1,0],[0.5,1,0],[0.25,1,0],[0,0.75,0],[0,0.5,0],[0,0.25,0]];verticalLabelPosition=bottom;html=1;verticalAlign=top;aspect=fixed;align=center;pointerEvents=1;shape=mxgraph.cisco19.rect;prIcon=l2_switch;fillColor=#FAFAFA;strokeColor=#005073;fontFamily=Helvetica;fontSize=11;fontColor=default;labelBackgroundColor=default;" vertex="1" parent="1">
          <mxGeometry x="200" y="680" width="50" height="50" as="geometry" />
        </mxCell>
        <mxCell id="7X1ovpzGRq5tquFaozXl-4" value="" style="sketch=0;points=[[0.015,0.015,0],[0.985,0.015,0],[0.985,0.985,0],[0.015,0.985,0],[0.25,0,0],[0.5,0,0],[0.75,0,0],[1,0.25,0],[1,0.5,0],[1,0.75,0],[0.75,1,0],[0.5,1,0],[0.25,1,0],[0,0.75,0],[0,0.5,0],[0,0.25,0]];verticalLabelPosition=bottom;html=1;verticalAlign=top;aspect=fixed;align=center;pointerEvents=1;shape=mxgraph.cisco19.rect;prIcon=l2_switch;fillColor=#FAFAFA;strokeColor=#005073;fontFamily=Helvetica;fontSize=11;fontColor=default;labelBackgroundColor=default;" vertex="1" parent="1">
          <mxGeometry x="403.5" y="680" width="50" height="50" as="geometry" />
        </mxCell>
        <mxCell id="7X1ovpzGRq5tquFaozXl-5" value="" style="sketch=0;points=[[0.015,0.015,0],[0.985,0.015,0],[0.985,0.985,0],[0.015,0.985,0],[0.25,0,0],[0.5,0,0],[0.75,0,0],[1,0.25,0],[1,0.5,0],[1,0.75,0],[0.75,1,0],[0.5,1,0],[0.25,1,0],[0,0.75,0],[0,0.5,0],[0,0.25,0]];verticalLabelPosition=bottom;html=1;verticalAlign=top;aspect=fixed;align=center;pointerEvents=1;shape=mxgraph.cisco19.server;fillColor=#005073;strokeColor=none;fontFamily=Helvetica;fontSize=11;fontColor=default;labelBackgroundColor=default;" vertex="1" parent="1">
          <mxGeometry x="330" y="180" width="27.500000000000004" height="50" as="geometry" />
        </mxCell>
        <mxCell id="7X1ovpzGRq5tquFaozXl-6" value="" style="sketch=0;points=[[0.015,0.015,0],[0.985,0.015,0],[0.985,0.985,0],[0.015,0.985,0],[0.25,0,0],[0.5,0,0],[0.75,0,0],[1,0.25,0],[1,0.5,0],[1,0.75,0],[0.75,1,0],[0.5,1,0],[0.25,1,0],[0,0.75,0],[0,0.5,0],[0,0.25,0]];verticalLabelPosition=bottom;html=1;verticalAlign=top;aspect=fixed;align=center;pointerEvents=1;shape=mxgraph.cisco19.server;fillColor=#005073;strokeColor=none;fontFamily=Helvetica;fontSize=11;fontColor=default;labelBackgroundColor=default;" vertex="1" parent="1">
          <mxGeometry x="384" y="180" width="27.500000000000004" height="50" as="geometry" />
        </mxCell>
        <mxCell id="7X1ovpzGRq5tquFaozXl-7" value="" style="sketch=0;points=[[0.015,0.015,0],[0.985,0.015,0],[0.985,0.985,0],[0.015,0.985,0],[0.25,0,0],[0.5,0,0],[0.75,0,0],[1,0.25,0],[1,0.5,0],[1,0.75,0],[0.75,1,0],[0.5,1,0],[0.25,1,0],[0,0.75,0],[0,0.5,0],[0,0.25,0]];verticalLabelPosition=bottom;html=1;verticalAlign=top;aspect=fixed;align=center;pointerEvents=1;shape=mxgraph.cisco19.server;fillColor=#005073;strokeColor=none;fontFamily=Helvetica;fontSize=11;fontColor=default;labelBackgroundColor=default;" vertex="1" parent="1">
          <mxGeometry x="603.5" y="680" width="27.500000000000004" height="50" as="geometry" />
        </mxCell>
        <mxCell id="7X1ovpzGRq5tquFaozXl-8" value="" style="points=[[0.13,0.02,0],[0.5,0,0],[0.87,0.02,0],[0.885,0.4,0],[0.985,0.985,0],[0.5,1,0],[0.015,0.985,0],[0.115,0.4,0]];verticalLabelPosition=bottom;sketch=0;html=1;verticalAlign=top;aspect=fixed;align=center;pointerEvents=1;shape=mxgraph.cisco19.laptop;fillColor=#005073;strokeColor=none;fontFamily=Helvetica;fontSize=11;fontColor=default;labelBackgroundColor=default;" vertex="1" parent="1">
          <mxGeometry x="50" y="200" width="50" height="35" as="geometry" />
        </mxCell>
        <mxCell id="7X1ovpzGRq5tquFaozXl-9" value="" style="points=[[0.13,0.02,0],[0.5,0,0],[0.87,0.02,0],[0.885,0.4,0],[0.985,0.985,0],[0.5,1,0],[0.015,0.985,0],[0.115,0.4,0]];verticalLabelPosition=bottom;sketch=0;html=1;verticalAlign=top;aspect=fixed;align=center;pointerEvents=1;shape=mxgraph.cisco19.laptop;fillColor=#005073;strokeColor=none;fontFamily=Helvetica;fontSize=11;fontColor=default;labelBackgroundColor=default;" vertex="1" parent="1">
          <mxGeometry x="50" y="260" width="50" height="35" as="geometry" />
        </mxCell>
        <mxCell id="7X1ovpzGRq5tquFaozXl-10" value="" style="points=[[0.13,0.02,0],[0.5,0,0],[0.87,0.02,0],[0.885,0.4,0],[0.985,0.985,0],[0.5,1,0],[0.015,0.985,0],[0.115,0.4,0]];verticalLabelPosition=bottom;sketch=0;html=1;verticalAlign=top;aspect=fixed;align=center;pointerEvents=1;shape=mxgraph.cisco19.laptop;fillColor=#005073;strokeColor=none;fontFamily=Helvetica;fontSize=11;fontColor=default;labelBackgroundColor=default;" vertex="1" parent="1">
          <mxGeometry x="50" y="330" width="50" height="35" as="geometry" />
        </mxCell>
        <mxCell id="7X1ovpzGRq5tquFaozXl-11" value="" style="points=[[0.03,0.03,0],[0.5,0,0],[0.97,0.03,0],[1,0.4,0],[0.97,0.745,0],[0.5,1,0],[0.03,0.745,0],[0,0.4,0]];verticalLabelPosition=bottom;sketch=0;html=1;verticalAlign=top;aspect=fixed;align=center;pointerEvents=1;shape=mxgraph.cisco19.workstation;fillColor=#005073;strokeColor=none;fontFamily=Helvetica;fontSize=11;fontColor=default;labelBackgroundColor=default;" vertex="1" parent="1">
          <mxGeometry x="160" y="800" width="50" height="40" as="geometry" />
        </mxCell>
        <mxCell id="7X1ovpzGRq5tquFaozXl-12" value="" style="points=[[0.03,0.03,0],[0.5,0,0],[0.97,0.03,0],[1,0.4,0],[0.97,0.745,0],[0.5,1,0],[0.03,0.745,0],[0,0.4,0]];verticalLabelPosition=bottom;sketch=0;html=1;verticalAlign=top;aspect=fixed;align=center;pointerEvents=1;shape=mxgraph.cisco19.workstation;fillColor=#005073;strokeColor=none;fontFamily=Helvetica;fontSize=11;fontColor=default;labelBackgroundColor=default;" vertex="1" parent="1">
          <mxGeometry x="250" y="800" width="50" height="40" as="geometry" />
        </mxCell>
        <mxCell id="7X1ovpzGRq5tquFaozXl-13" value="" style="fontColor=#0066CC;verticalAlign=top;verticalLabelPosition=bottom;labelPosition=center;align=center;html=1;outlineConnect=0;fillColor=#CCCCCC;strokeColor=#6881B3;gradientColor=none;gradientDirection=north;strokeWidth=2;shape=mxgraph.networks.monitor;fontFamily=Helvetica;fontSize=11;labelBackgroundColor=default;" vertex="1" parent="1">
          <mxGeometry x="497.25" y="580" width="80" height="65" as="geometry" />
        </mxCell>
        <mxCell id="7X1ovpzGRq5tquFaozXl-14" value="" style="fontColor=#0066CC;verticalAlign=top;verticalLabelPosition=bottom;labelPosition=center;align=center;html=1;outlineConnect=0;fillColor=#CCCCCC;strokeColor=#6881B3;gradientColor=none;gradientDirection=north;strokeWidth=2;shape=mxgraph.networks.monitor;fontFamily=Helvetica;fontSize=11;labelBackgroundColor=default;" vertex="1" parent="1">
          <mxGeometry x="577.25" y="580" width="80" height="65" as="geometry" />
        </mxCell>
        <mxCell id="7X1ovpzGRq5tquFaozXl-15" value="" style="fontColor=#0066CC;verticalAlign=top;verticalLabelPosition=bottom;labelPosition=center;align=center;html=1;outlineConnect=0;fillColor=#CCCCCC;strokeColor=#6881B3;gradientColor=none;gradientDirection=north;strokeWidth=2;shape=mxgraph.networks.monitor;fontFamily=Helvetica;fontSize=11;labelBackgroundColor=default;" vertex="1" parent="1">
          <mxGeometry x="657.25" y="580" width="80" height="65" as="geometry" />
        </mxCell>
        <mxCell id="7X1ovpzGRq5tquFaozXl-16" style="edgeStyle=orthogonalEdgeStyle;shape=link;rounded=0;orthogonalLoop=1;jettySize=auto;html=1;exitX=0.25;exitY=1;exitDx=0;exitDy=0;exitPerimeter=0;entryX=0.015;entryY=0.015;entryDx=0;entryDy=0;entryPerimeter=0;strokeColor=#00FF80;strokeWidth=1;align=center;verticalAlign=middle;fontFamily=Helvetica;fontSize=11;fontColor=default;labelBackgroundColor=default;endArrow=none;endFill=0;" edge="1" parent="1" source="7X1ovpzGRq5tquFaozXl-5" target="7X1ovpzGRq5tquFaozXl-1">
          <mxGeometry relative="1" as="geometry">
            <Array as="points">
              <mxPoint x="337" y="260" />
              <mxPoint x="348" y="260" />
            </Array>
          </mxGeometry>
        </mxCell>
        <mxCell id="7X1ovpzGRq5tquFaozXl-17" style="edgeStyle=orthogonalEdgeStyle;shape=link;rounded=0;orthogonalLoop=1;jettySize=auto;html=1;exitX=0.75;exitY=1;exitDx=0;exitDy=0;exitPerimeter=0;entryX=0.985;entryY=0.015;entryDx=0;entryDy=0;entryPerimeter=0;strokeColor=#66B2FF;strokeWidth=1;align=center;verticalAlign=middle;fontFamily=Helvetica;fontSize=11;fontColor=default;labelBackgroundColor=default;endArrow=none;endFill=0;" edge="1" parent="1" source="7X1ovpzGRq5tquFaozXl-6" target="7X1ovpzGRq5tquFaozXl-1">
          <mxGeometry relative="1" as="geometry">
            <Array as="points">
              <mxPoint x="405" y="260" />
              <mxPoint x="397" y="260" />
            </Array>
          </mxGeometry>
        </mxCell>
        <mxCell id="kKazJ4-WbauLBfFZvUtu-1" style="edgeStyle=orthogonalEdgeStyle;shape=link;rounded=0;orthogonalLoop=1;jettySize=auto;html=1;exitX=1;exitY=0.5;exitDx=0;exitDy=0;exitPerimeter=0;entryX=0;entryY=0.5;entryDx=0;entryDy=0;entryPerimeter=0;strokeColor=#0066CC;strokeWidth=2;align=center;verticalAlign=middle;fontFamily=Helvetica;fontSize=11;fontColor=default;labelBackgroundColor=default;endArrow=none;endFill=0;dashed=1;" edge="1" parent="1" source="7X1ovpzGRq5tquFaozXl-2" target="7X1ovpzGRq5tquFaozXl-1">
          <mxGeometry relative="1" as="geometry" />
        </mxCell>
        <mxCell id="kKazJ4-WbauLBfFZvUtu-2" style="edgeStyle=orthogonalEdgeStyle;shape=link;rounded=0;orthogonalLoop=1;jettySize=auto;html=1;exitX=0.25;exitY=1;exitDx=0;exitDy=0;exitPerimeter=0;entryX=0.5;entryY=0;entryDx=0;entryDy=0;entryPerimeter=0;strokeColor=#FF8000;strokeWidth=2;align=center;verticalAlign=middle;fontFamily=Helvetica;fontSize=11;fontColor=default;labelBackgroundColor=default;endArrow=none;endFill=0;dashed=1;" edge="1" parent="1" source="7X1ovpzGRq5tquFaozXl-1" target="7X1ovpzGRq5tquFaozXl-3">
          <mxGeometry relative="1" as="geometry">
            <Array as="points">
              <mxPoint x="360" y="500" />
              <mxPoint x="225" y="500" />
            </Array>
          </mxGeometry>
        </mxCell>
        <mxCell id="y-dmwCQvbWrPeHdGEMyn-1" style="edgeStyle=orthogonalEdgeStyle;shape=link;rounded=0;orthogonalLoop=1;jettySize=auto;html=1;exitX=0.75;exitY=1;exitDx=0;exitDy=0;exitPerimeter=0;entryX=0.25;entryY=0;entryDx=0;entryDy=0;entryPerimeter=0;strokeColor=#00FF80;strokeWidth=1;align=center;verticalAlign=middle;fontFamily=Helvetica;fontSize=11;fontColor=default;labelBackgroundColor=default;endArrow=none;endFill=0;" edge="1" parent="1" source="7X1ovpzGRq5tquFaozXl-5" target="7X1ovpzGRq5tquFaozXl-1">
          <mxGeometry relative="1" as="geometry">
            <Array as="points">
              <mxPoint x="351" y="250" />
              <mxPoint x="360" y="250" />
            </Array>
          </mxGeometry>
        </mxCell>
        <mxCell id="UcZ1Vga_6dOdHl0J8aK5-1" style="edgeStyle=orthogonalEdgeStyle;shape=link;rounded=0;orthogonalLoop=1;jettySize=auto;html=1;exitX=0.25;exitY=1;exitDx=0;exitDy=0;exitPerimeter=0;entryX=0.75;entryY=0;entryDx=0;entryDy=0;entryPerimeter=0;strokeColor=#66B2FF;strokeWidth=1;align=center;verticalAlign=middle;fontFamily=Helvetica;fontSize=11;fontColor=default;labelBackgroundColor=default;endArrow=none;endFill=0;" edge="1" parent="1" source="7X1ovpzGRq5tquFaozXl-6" target="7X1ovpzGRq5tquFaozXl-1">
          <mxGeometry relative="1" as="geometry">
            <Array as="points">
              <mxPoint x="391" y="250" />
              <mxPoint x="385" y="250" />
            </Array>
          </mxGeometry>
        </mxCell>
        <mxCell id="UcZ1Vga_6dOdHl0J8aK5-2" style="edgeStyle=orthogonalEdgeStyle;rounded=0;orthogonalLoop=1;jettySize=auto;html=1;exitX=0;exitY=0.25;exitDx=0;exitDy=0;exitPerimeter=0;entryX=0.885;entryY=0.4;entryDx=0;entryDy=0;entryPerimeter=0;strokeColor=#FFB366;strokeWidth=2;align=center;verticalAlign=middle;fontFamily=Helvetica;fontSize=11;fontColor=default;labelBackgroundColor=default;endArrow=none;endFill=0;" edge="1" parent="1" source="7X1ovpzGRq5tquFaozXl-2" target="7X1ovpzGRq5tquFaozXl-8">
          <mxGeometry relative="1" as="geometry">
            <Array as="points">
              <mxPoint x="180" y="292" />
              <mxPoint x="180" y="214" />
            </Array>
          </mxGeometry>
        </mxCell>
        <mxCell id="UcZ1Vga_6dOdHl0J8aK5-3" style="edgeStyle=orthogonalEdgeStyle;shape=connector;rounded=0;orthogonalLoop=1;jettySize=auto;html=1;exitX=0.885;exitY=0.4;exitDx=0;exitDy=0;exitPerimeter=0;entryX=0;entryY=0.5;entryDx=0;entryDy=0;entryPerimeter=0;strokeColor=#FFB366;strokeWidth=2;align=center;verticalAlign=middle;fontFamily=Helvetica;fontSize=11;fontColor=default;labelBackgroundColor=default;endArrow=none;endFill=0;" edge="1" parent="1" source="7X1ovpzGRq5tquFaozXl-9" target="7X1ovpzGRq5tquFaozXl-2">
          <mxGeometry relative="1" as="geometry" />
        </mxCell>
        <mxCell id="UcZ1Vga_6dOdHl0J8aK5-4" style="edgeStyle=orthogonalEdgeStyle;shape=connector;rounded=0;orthogonalLoop=1;jettySize=auto;html=1;exitX=0.885;exitY=0.4;exitDx=0;exitDy=0;exitPerimeter=0;entryX=0;entryY=0.75;entryDx=0;entryDy=0;entryPerimeter=0;strokeColor=#FFB366;strokeWidth=2;align=center;verticalAlign=middle;fontFamily=Helvetica;fontSize=11;fontColor=default;labelBackgroundColor=default;endArrow=none;endFill=0;" edge="1" parent="1" source="7X1ovpzGRq5tquFaozXl-10" target="7X1ovpzGRq5tquFaozXl-2">
          <mxGeometry relative="1" as="geometry" />
        </mxCell>
        <mxCell id="UcZ1Vga_6dOdHl0J8aK5-5" style="edgeStyle=orthogonalEdgeStyle;shape=connector;rounded=0;orthogonalLoop=1;jettySize=auto;html=1;exitX=0.25;exitY=1;exitDx=0;exitDy=0;exitPerimeter=0;entryX=0.5;entryY=0;entryDx=0;entryDy=0;entryPerimeter=0;strokeColor=#FFB366;strokeWidth=2;align=center;verticalAlign=middle;fontFamily=Helvetica;fontSize=11;fontColor=default;labelBackgroundColor=default;endArrow=none;endFill=0;" edge="1" parent="1" source="7X1ovpzGRq5tquFaozXl-3" target="7X1ovpzGRq5tquFaozXl-11">
          <mxGeometry relative="1" as="geometry" />
        </mxCell>
        <mxCell id="UcZ1Vga_6dOdHl0J8aK5-6" style="edgeStyle=orthogonalEdgeStyle;shape=connector;rounded=0;orthogonalLoop=1;jettySize=auto;html=1;exitX=0.75;exitY=1;exitDx=0;exitDy=0;exitPerimeter=0;entryX=0.5;entryY=0;entryDx=0;entryDy=0;entryPerimeter=0;strokeColor=#FFB366;strokeWidth=2;align=center;verticalAlign=middle;fontFamily=Helvetica;fontSize=11;fontColor=default;labelBackgroundColor=default;endArrow=none;endFill=0;" edge="1" parent="1" source="7X1ovpzGRq5tquFaozXl-3" target="7X1ovpzGRq5tquFaozXl-12">
          <mxGeometry relative="1" as="geometry" />
        </mxCell>
        <mxCell id="UcZ1Vga_6dOdHl0J8aK5-7" value="" style="points=[[0.03,0.03,0],[0.5,0,0],[0.97,0.03,0],[1,0.4,0],[0.97,0.745,0],[0.5,1,0],[0.03,0.745,0],[0,0.4,0]];verticalLabelPosition=bottom;sketch=0;html=1;verticalAlign=top;aspect=fixed;align=center;pointerEvents=1;shape=mxgraph.cisco19.workstation;fillColor=#005073;strokeColor=none;fontFamily=Helvetica;fontSize=11;fontColor=default;labelBackgroundColor=default;" vertex="1" parent="1">
          <mxGeometry x="403.5" y="800" width="50" height="40" as="geometry" />
        </mxCell>
        <mxCell id="UcZ1Vga_6dOdHl0J8aK5-8" style="edgeStyle=orthogonalEdgeStyle;shape=connector;rounded=0;orthogonalLoop=1;jettySize=auto;html=1;exitX=0.5;exitY=1;exitDx=0;exitDy=0;exitPerimeter=0;entryX=0.5;entryY=0;entryDx=0;entryDy=0;entryPerimeter=0;strokeColor=#FFB366;strokeWidth=2;align=center;verticalAlign=middle;fontFamily=Helvetica;fontSize=11;fontColor=default;labelBackgroundColor=default;endArrow=none;endFill=0;" edge="1" parent="1" source="7X1ovpzGRq5tquFaozXl-4" target="UcZ1Vga_6dOdHl0J8aK5-7">
          <mxGeometry relative="1" as="geometry" />
        </mxCell>
        <mxCell id="UcZ1Vga_6dOdHl0J8aK5-9" style="edgeStyle=orthogonalEdgeStyle;shape=connector;rounded=0;orthogonalLoop=1;jettySize=auto;html=1;exitX=1;exitY=0.5;exitDx=0;exitDy=0;exitPerimeter=0;entryX=0;entryY=0.5;entryDx=0;entryDy=0;entryPerimeter=0;strokeColor=#FFB366;strokeWidth=2;align=center;verticalAlign=middle;fontFamily=Helvetica;fontSize=11;fontColor=default;labelBackgroundColor=default;endArrow=none;endFill=0;" edge="1" parent="1" source="7X1ovpzGRq5tquFaozXl-4" target="7X1ovpzGRq5tquFaozXl-7">
          <mxGeometry relative="1" as="geometry" />
        </mxCell>
        <mxCell id="UcZ1Vga_6dOdHl0J8aK5-10" style="edgeStyle=orthogonalEdgeStyle;shape=connector;rounded=0;orthogonalLoop=1;jettySize=auto;html=1;exitX=0.25;exitY=0;exitDx=0;exitDy=0;exitPerimeter=0;entryX=0.5;entryY=1;entryDx=0;entryDy=0;entryPerimeter=0;strokeColor=#FF66B3;strokeWidth=2;align=center;verticalAlign=middle;fontFamily=Helvetica;fontSize=11;fontColor=default;labelBackgroundColor=default;endArrow=none;endFill=0;" edge="1" parent="1" source="7X1ovpzGRq5tquFaozXl-7" target="7X1ovpzGRq5tquFaozXl-13">
          <mxGeometry relative="1" as="geometry">
            <Array as="points">
              <mxPoint x="610.5" y="665" />
              <mxPoint x="537.5" y="665" />
            </Array>
          </mxGeometry>
        </mxCell>
        <mxCell id="UcZ1Vga_6dOdHl0J8aK5-11" style="edgeStyle=orthogonalEdgeStyle;shape=connector;rounded=0;orthogonalLoop=1;jettySize=auto;html=1;exitX=0.5;exitY=0;exitDx=0;exitDy=0;exitPerimeter=0;entryX=0.5;entryY=1;entryDx=0;entryDy=0;entryPerimeter=0;strokeColor=#FF66B3;strokeWidth=2;align=center;verticalAlign=middle;fontFamily=Helvetica;fontSize=11;fontColor=default;labelBackgroundColor=default;endArrow=none;endFill=0;" edge="1" parent="1" source="7X1ovpzGRq5tquFaozXl-7" target="7X1ovpzGRq5tquFaozXl-14">
          <mxGeometry relative="1" as="geometry" />
        </mxCell>
        <mxCell id="UcZ1Vga_6dOdHl0J8aK5-12" style="edgeStyle=orthogonalEdgeStyle;shape=connector;rounded=0;orthogonalLoop=1;jettySize=auto;html=1;exitX=0.75;exitY=0;exitDx=0;exitDy=0;exitPerimeter=0;entryX=0.5;entryY=1;entryDx=0;entryDy=0;entryPerimeter=0;strokeColor=#FF66B3;strokeWidth=2;align=center;verticalAlign=middle;fontFamily=Helvetica;fontSize=11;fontColor=default;labelBackgroundColor=default;endArrow=none;endFill=0;" edge="1" parent="1" source="7X1ovpzGRq5tquFaozXl-7" target="7X1ovpzGRq5tquFaozXl-15">
          <mxGeometry relative="1" as="geometry">
            <Array as="points">
              <mxPoint x="624.5" y="665" />
              <mxPoint x="697.5" y="665" />
            </Array>
          </mxGeometry>
        </mxCell>
        <mxCell id="gacrdgojKo9diqk1DQ4w-1" value="" style="edgeStyle=orthogonalEdgeStyle;shape=link;rounded=0;orthogonalLoop=1;jettySize=auto;html=1;exitX=0.5;exitY=0;exitDx=0;exitDy=0;exitPerimeter=0;entryX=0.75;entryY=1;entryDx=0;entryDy=0;entryPerimeter=0;strokeColor=#7F00FF;strokeWidth=2;align=center;verticalAlign=middle;fontFamily=Helvetica;fontSize=11;fontColor=default;labelBackgroundColor=default;endArrow=none;endFill=0;dashed=1;" edge="1" parent="1" source="7X1ovpzGRq5tquFaozXl-4" target="UcZ1Vga_6dOdHl0J8aK5-13">
          <mxGeometry relative="1" as="geometry">
            <mxPoint x="465" y="680" as="sourcePoint" />
            <mxPoint x="385" y="330" as="targetPoint" />
            <Array as="points">
              <mxPoint x="429" y="500" />
              <mxPoint x="386" y="500" />
            </Array>
          </mxGeometry>
        </mxCell>
        <mxCell id="UcZ1Vga_6dOdHl0J8aK5-13" value="flig0nwcs0" style="rounded=1;whiteSpace=wrap;html=1;fontFamily=Helvetica;fontSize=11;labelBackgroundColor=none;fillColor=#dae8fc;strokeColor=#6c8ebf;" vertex="1" parent="1">
          <mxGeometry x="344.69" y="330" width="55.62" height="20" as="geometry" />
        </mxCell>
        <mxCell id="gacrdgojKo9diqk1DQ4w-2" value="flig0nwsw0" style="rounded=1;whiteSpace=wrap;html=1;fontFamily=Helvetica;fontSize=11;labelBackgroundColor=none;fillColor=#dae8fc;strokeColor=#6c8ebf;" vertex="1" parent="1">
          <mxGeometry x="193.44" y="330" width="63.13" height="20" as="geometry" />
        </mxCell>
        <mxCell id="gacrdgojKo9diqk1DQ4w-5" value="flig0hsrv0" style="rounded=1;whiteSpace=wrap;html=1;fontFamily=Helvetica;fontSize=11;labelBackgroundColor=none;fillColor=#dae8fc;strokeColor=#6c8ebf;" vertex="1" parent="1">
          <mxGeometry x="318.75" y="160" width="50" height="20" as="geometry" />
        </mxCell>
        <mxCell id="gacrdgojKo9diqk1DQ4w-6" value="flig0nwsw1" style="rounded=1;whiteSpace=wrap;html=1;fontFamily=Helvetica;fontSize=11;labelBackgroundColor=none;fillColor=#dae8fc;strokeColor=#6c8ebf;" vertex="1" parent="1">
          <mxGeometry x="193.44" y="730" width="63.13" height="20" as="geometry" />
        </mxCell>
        <mxCell id="gacrdgojKo9diqk1DQ4w-7" value="flig0nwsw2" style="rounded=1;whiteSpace=wrap;html=1;fontFamily=Helvetica;fontSize=11;labelBackgroundColor=none;fillColor=#dae8fc;strokeColor=#6c8ebf;" vertex="1" parent="1">
          <mxGeometry x="396.94" y="730" width="63.13" height="20" as="geometry" />
        </mxCell>
        <mxCell id="gacrdgojKo9diqk1DQ4w-8" value="flig0hsrv1" style="rounded=1;whiteSpace=wrap;html=1;fontFamily=Helvetica;fontSize=11;labelBackgroundColor=none;fillColor=#dae8fc;strokeColor=#6c8ebf;" vertex="1" parent="1">
          <mxGeometry x="372.75" y="160" width="50" height="20" as="geometry" />
        </mxCell>
        <mxCell id="gacrdgojKo9diqk1DQ4w-9" value="flig0hsrv2" style="rounded=1;whiteSpace=wrap;html=1;fontFamily=Helvetica;fontSize=11;labelBackgroundColor=none;fillColor=#dae8fc;strokeColor=#6c8ebf;" vertex="1" parent="1">
          <mxGeometry x="592.25" y="730" width="50" height="20" as="geometry" />
        </mxCell>
        <mxCell id="gacrdgojKo9diqk1DQ4w-10" value="&lt;div style=&quot;text-align: center;&quot;&gt;&lt;span style=&quot;background-color: light-dark(#ffffff, var(--ge-dark-color, #121212)); color: light-dark(rgb(0, 0, 0), rgb(255, 255, 255));&quot;&gt;Code site: FLIG0 (France LImoGe 0)&lt;/span&gt;&lt;/div&gt;&lt;div&gt;&lt;br&gt;&lt;/div&gt;&lt;div&gt;nw : &lt;span style=&quot;white-space: pre;&quot;&gt;&#x9;&lt;/span&gt;NetWork&lt;span style=&quot;white-space: pre;&quot;&gt;&#x9;&lt;/span&gt;&lt;span style=&quot;white-space: pre;&quot;&gt;&#x9;&lt;span style=&quot;white-space: pre;&quot;&gt;&#x9;&lt;/span&gt;&lt;span style=&quot;white-space: pre;&quot;&gt;&#x9;&lt;/span&gt;&lt;/span&gt;Matériel réseau&lt;/div&gt;&lt;div&gt;cs : &lt;span style=&quot;white-space: pre;&quot;&gt;&#x9;&lt;/span&gt;&lt;span style=&quot;white-space: pre;&quot;&gt;&#x9;&lt;/span&gt;CoreSwitch&lt;span style=&quot;white-space: pre;&quot;&gt;&#x9;&lt;/span&gt;&lt;span style=&quot;white-space: pre;&quot;&gt;&#x9;&lt;span style=&quot;white-space: pre;&quot;&gt;&#x9;&lt;/span&gt;&lt;/span&gt;Coeur de réseau&lt;/div&gt;&lt;div&gt;sw : &lt;span style=&quot;white-space: pre;&quot;&gt;&#x9;&lt;/span&gt;&lt;span style=&quot;white-space: pre;&quot;&gt;&#x9;&lt;/span&gt;SWitch&lt;/div&gt;&lt;div style=&quot;&quot;&gt;hsrv : &lt;span style=&quot;white-space: pre;&quot;&gt;&#x9;&lt;/span&gt;Hypervisor SeRVer &lt;span style=&quot;white-space: pre;&quot;&gt;&#x9;&lt;/span&gt;Serveur hyperviseur&lt;/div&gt;&lt;div style=&quot;&quot;&gt;&lt;br&gt;&lt;/div&gt;&lt;div style=&quot;&quot;&gt;exemple:&lt;/div&gt;&lt;div style=&quot;&quot;&gt;flig0nwsw1&lt;/div&gt;&lt;div style=&quot;&quot;&gt;&lt;b&gt;&lt;font style=&quot;color: rgb(255, 51, 153);&quot;&gt;flig0&lt;span style=&quot;white-space: pre;&quot;&gt;&#x9;&lt;/span&gt;&lt;span style=&quot;white-space: pre;&quot;&gt;&#x9;&lt;/span&gt;&lt;/font&gt;&lt;font style=&quot;color: rgb(0, 127, 255);&quot;&gt;nw&lt;span style=&quot;white-space: pre;&quot;&gt;&#x9;&lt;/span&gt;&lt;span style=&quot;white-space: pre;&quot;&gt;&#x9;&lt;/span&gt;&lt;/font&gt;&lt;font style=&quot;color: rgb(0, 204, 0);&quot;&gt;sw&lt;span style=&quot;white-space: pre;&quot;&gt;&#x9;&lt;/span&gt;&lt;span style=&quot;white-space: pre;&quot;&gt;&#x9;&lt;/span&gt;&lt;/font&gt;&lt;font style=&quot;color: rgb(255, 128, 0);&quot;&gt;1&lt;/font&gt;&lt;/b&gt;&lt;/div&gt;&lt;div style=&quot;&quot;&gt;&lt;font style=&quot;color: rgb(255, 51, 153);&quot;&gt;site Limoge 0&lt;/font&gt; - &lt;font style=&quot;color: rgb(0, 127, 255);&quot;&gt;Matériel réseau&lt;/font&gt; - &lt;font style=&quot;color: rgb(0, 204, 0);&quot;&gt;Switch&lt;/font&gt; - &lt;font style=&quot;color: rgb(255, 128, 0);&quot;&gt;numéro 1&lt;/font&gt;&lt;/div&gt;&lt;div style=&quot;&quot;&gt;&lt;font style=&quot;color: rgb(255, 128, 0);&quot;&gt;&lt;br&gt;&lt;/font&gt;&lt;/div&gt;&lt;div style=&quot;&quot;&gt;&lt;br&gt;&lt;/div&gt;" style="rounded=1;whiteSpace=wrap;html=1;fontFamily=Helvetica;fontSize=11;fontColor=default;labelBackgroundColor=default;arcSize=4;verticalAlign=top;align=left;" vertex="1" parent="1">
          <mxGeometry x="490" y="120" width="283.43" height="370" as="geometry" />
        </mxCell>
        <mxCell id="GDSxYVGYmBgoeRc3nyhu-1" value="Salle serveur" style="text;html=1;align=center;verticalAlign=middle;whiteSpace=wrap;rounded=0;fontFamily=Helvetica;fontSize=11;fontColor=default;labelBackgroundColor=default;" vertex="1" parent="1">
          <mxGeometry x="318.75" y="130" width="110" height="20" as="geometry" />
        </mxCell>
        <mxCell id="GDSxYVGYmBgoeRc3nyhu-2" value="Bureaux 01 - bur01" style="text;html=1;align=center;verticalAlign=middle;whiteSpace=wrap;rounded=0;fontFamily=Helvetica;fontSize=11;fontColor=default;labelBackgroundColor=default;" vertex="1" parent="1">
          <mxGeometry x="93.28999999999999" y="130" width="110" height="20" as="geometry" />
        </mxCell>
        <mxCell id="5FusmkRhzHWStqd5MSd0-1" value="Atelier fabrication 01 - fab01" style="text;html=1;align=center;verticalAlign=middle;whiteSpace=wrap;rounded=0;fontFamily=Helvetica;fontSize=11;fontColor=default;labelBackgroundColor=default;" vertex="1" parent="1">
          <mxGeometry x="140" y="850" width="170" height="20" as="geometry" />
        </mxCell>
        <mxCell id="9prG8Di2VUciW8g0yXme-1" value="Atelier fabrication 02 - fab02" style="text;html=1;align=center;verticalAlign=middle;whiteSpace=wrap;rounded=0;fontFamily=Helvetica;fontSize=11;fontColor=default;labelBackgroundColor=default;" vertex="1" parent="1">
          <mxGeometry x="450" y="850" width="170" height="20" as="geometry" />
        </mxCell>
      </root>
    </mxGraphModel>
  </diagram>
  <diagram id="S_8FBqEWUYSpQVulksUU" name="Plan physique">
    <mxGraphModel dx="1837" dy="1105" grid="1" gridSize="10" guides="1" tooltips="1" connect="1" arrows="1" fold="1" page="1" pageScale="1" pageWidth="1654" pageHeight="1169" math="0" shadow="0">
      <root>
        <mxCell id="0" />
        <mxCell id="1" parent="0" />
        <mxCell id="0fhq6JTLAvQjIUdSAwFy-7" value="" style="rounded=0;whiteSpace=wrap;html=1;movable=1;resizable=1;rotatable=1;deletable=1;editable=1;locked=0;connectable=1;fillColor=default;" parent="1" vertex="1">
          <mxGeometry x="10" y="7.5" width="1640" height="1155" as="geometry" />
        </mxCell>
        <mxCell id="j9tZ-ss8oP2DByefkztP-14" value="" style="verticalLabelPosition=bottom;html=1;verticalAlign=top;align=center;shape=mxgraph.floorplan.stairsRest;rotation=-90;" parent="1" vertex="1">
          <mxGeometry x="490" y="80" width="180" height="110" as="geometry" />
        </mxCell>
        <mxCell id="j9tZ-ss8oP2DByefkztP-13" value="" style="verticalLabelPosition=bottom;html=1;verticalAlign=top;align=center;shape=mxgraph.floorplan.stairsRest;rotation=-90;" parent="1" vertex="1">
          <mxGeometry x="10" y="80" width="180" height="110" as="geometry" />
        </mxCell>
        <mxCell id="j9tZ-ss8oP2DByefkztP-8" value="" style="verticalLabelPosition=bottom;html=1;verticalAlign=top;align=center;shape=mxgraph.floorplan.chair;rotation=-180;" parent="1" vertex="1">
          <mxGeometry x="220" y="723" width="31" height="42" as="geometry" />
        </mxCell>
        <mxCell id="j9tZ-ss8oP2DByefkztP-9" value="" style="verticalLabelPosition=bottom;html=1;verticalAlign=top;align=center;shape=mxgraph.floorplan.chair;rotation=-180;" parent="1" vertex="1">
          <mxGeometry x="270" y="723" width="31" height="42" as="geometry" />
        </mxCell>
        <mxCell id="j9tZ-ss8oP2DByefkztP-1" value="" style="verticalLabelPosition=bottom;html=1;verticalAlign=top;align=center;shape=mxgraph.floorplan.room;fillColor=strokeColor;" parent="1" vertex="1">
          <mxGeometry x="40" y="40" width="410" height="440" as="geometry" />
        </mxCell>
        <mxCell id="j9tZ-ss8oP2DByefkztP-3" value="" style="verticalLabelPosition=bottom;html=1;verticalAlign=top;align=center;shape=mxgraph.floorplan.wall;fillColor=strokeColor;direction=south;" parent="1" vertex="1">
          <mxGeometry x="390" y="690" width="10" height="420" as="geometry" />
        </mxCell>
        <mxCell id="j9tZ-ss8oP2DByefkztP-5" value="" style="verticalLabelPosition=bottom;html=1;verticalAlign=top;align=center;shape=mxgraph.floorplan.doorDouble;aspect=fixed;rotation=-90;" parent="1" vertex="1">
          <mxGeometry x="353" y="824" width="160" height="85" as="geometry" />
        </mxCell>
        <mxCell id="j9tZ-ss8oP2DByefkztP-6" value="" style="verticalLabelPosition=bottom;html=1;verticalAlign=top;align=center;shape=mxgraph.floorplan.wallCorner;fillColor=strokeColor;direction=north" parent="1" vertex="1">
          <mxGeometry x="160" y="690" width="160" height="100" as="geometry" />
        </mxCell>
        <mxCell id="j9tZ-ss8oP2DByefkztP-7" value="" style="verticalLabelPosition=bottom;html=1;verticalAlign=top;align=center;shape=mxgraph.floorplan.desk_corner_2;" parent="1" vertex="1">
          <mxGeometry x="170" y="690" width="150" height="90" as="geometry" />
        </mxCell>
        <mxCell id="j9tZ-ss8oP2DByefkztP-12" value="" style="verticalLabelPosition=bottom;html=1;verticalAlign=top;align=center;shape=mxgraph.floorplan.room;fillColor=strokeColor;" parent="1" vertex="1">
          <mxGeometry x="520" y="40" width="410" height="440" as="geometry" />
        </mxCell>
        <mxCell id="j9tZ-ss8oP2DByefkztP-15" value="" style="verticalLabelPosition=bottom;html=1;verticalAlign=top;align=center;shape=mxgraph.floorplan.doorDouble;aspect=fixed;" parent="1" vertex="1">
          <mxGeometry x="52.940000000000055" y="470" width="94.12" height="50" as="geometry" />
        </mxCell>
        <mxCell id="j9tZ-ss8oP2DByefkztP-16" value="" style="verticalLabelPosition=bottom;html=1;verticalAlign=top;align=center;shape=mxgraph.floorplan.wall;fillColor=strokeColor;direction=south;" parent="1" vertex="1">
          <mxGeometry x="150" y="50" width="10" height="310" as="geometry" />
        </mxCell>
        <mxCell id="j9tZ-ss8oP2DByefkztP-17" value="" style="verticalLabelPosition=bottom;html=1;verticalAlign=top;align=center;shape=mxgraph.floorplan.wall;fillColor=strokeColor;" parent="1" vertex="1">
          <mxGeometry x="160" y="350" width="280" height="10" as="geometry" />
        </mxCell>
        <mxCell id="j9tZ-ss8oP2DByefkztP-18" value="" style="verticalLabelPosition=bottom;html=1;verticalAlign=top;align=center;shape=mxgraph.floorplan.wall;fillColor=strokeColor;direction=south;" parent="1" vertex="1">
          <mxGeometry x="295" y="50" width="10" height="300" as="geometry" />
        </mxCell>
        <mxCell id="j9tZ-ss8oP2DByefkztP-19" value="" style="verticalLabelPosition=bottom;html=1;verticalAlign=top;align=center;shape=mxgraph.floorplan.desk_corner;" parent="1" vertex="1">
          <mxGeometry x="150" y="400" width="70" height="70" as="geometry" />
        </mxCell>
        <mxCell id="j9tZ-ss8oP2DByefkztP-22" value="" style="verticalLabelPosition=bottom;html=1;verticalAlign=top;align=center;shape=mxgraph.floorplan.desk_corner;" parent="1" vertex="1">
          <mxGeometry x="160" y="280" width="70" height="70" as="geometry" />
        </mxCell>
        <mxCell id="j9tZ-ss8oP2DByefkztP-23" value="" style="verticalLabelPosition=bottom;html=1;verticalAlign=top;align=center;shape=mxgraph.floorplan.desk_corner;rotation=-90;" parent="1" vertex="1">
          <mxGeometry x="160" y="210" width="70" height="70" as="geometry" />
        </mxCell>
        <mxCell id="j9tZ-ss8oP2DByefkztP-24" value="" style="verticalLabelPosition=bottom;html=1;verticalAlign=top;align=center;shape=mxgraph.floorplan.desk_corner;rotation=-90;" parent="1" vertex="1">
          <mxGeometry x="160" y="50" width="70" height="70" as="geometry" />
        </mxCell>
        <mxCell id="j9tZ-ss8oP2DByefkztP-25" value="" style="verticalLabelPosition=bottom;html=1;verticalAlign=top;align=center;shape=mxgraph.floorplan.desk_corner;rotation=0;" parent="1" vertex="1">
          <mxGeometry x="160" y="120" width="70" height="70" as="geometry" />
        </mxCell>
        <mxCell id="j9tZ-ss8oP2DByefkztP-26" value="" style="verticalLabelPosition=bottom;html=1;verticalAlign=top;align=center;shape=mxgraph.floorplan.desk_corner;rotation=90;" parent="1" vertex="1">
          <mxGeometry x="225" y="200" width="70" height="70" as="geometry" />
        </mxCell>
        <mxCell id="j9tZ-ss8oP2DByefkztP-27" value="" style="verticalLabelPosition=bottom;html=1;verticalAlign=top;align=center;shape=mxgraph.floorplan.desk_corner;rotation=-180;" parent="1" vertex="1">
          <mxGeometry x="225" y="130" width="70" height="70" as="geometry" />
        </mxCell>
        <mxCell id="j9tZ-ss8oP2DByefkztP-28" value="" style="verticalLabelPosition=bottom;html=1;verticalAlign=top;align=center;shape=mxgraph.floorplan.desk_corner;rotation=-90;" parent="1" vertex="1">
          <mxGeometry x="305" y="50" width="70" height="70" as="geometry" />
        </mxCell>
        <mxCell id="j9tZ-ss8oP2DByefkztP-29" value="" style="verticalLabelPosition=bottom;html=1;verticalAlign=top;align=center;shape=mxgraph.floorplan.desk_corner;rotation=0;" parent="1" vertex="1">
          <mxGeometry x="305" y="120" width="70" height="70" as="geometry" />
        </mxCell>
        <mxCell id="j9tZ-ss8oP2DByefkztP-30" value="" style="verticalLabelPosition=bottom;html=1;verticalAlign=top;align=center;shape=mxgraph.floorplan.desk_corner;rotation=-180;" parent="1" vertex="1">
          <mxGeometry x="370" y="130" width="70" height="70" as="geometry" />
        </mxCell>
        <mxCell id="j9tZ-ss8oP2DByefkztP-31" value="" style="verticalLabelPosition=bottom;html=1;verticalAlign=top;align=center;shape=mxgraph.floorplan.desk_corner;rotation=90;" parent="1" vertex="1">
          <mxGeometry x="370" y="200" width="70" height="70" as="geometry" />
        </mxCell>
        <mxCell id="j9tZ-ss8oP2DByefkztP-32" value="" style="verticalLabelPosition=bottom;html=1;verticalAlign=top;align=center;shape=mxgraph.floorplan.desk_corner;rotation=-90;" parent="1" vertex="1">
          <mxGeometry x="305" y="210" width="70" height="70" as="geometry" />
        </mxCell>
        <mxCell id="j9tZ-ss8oP2DByefkztP-33" value="" style="verticalLabelPosition=bottom;html=1;verticalAlign=top;align=center;shape=mxgraph.floorplan.desk_corner;" parent="1" vertex="1">
          <mxGeometry x="305" y="280" width="70" height="70" as="geometry" />
        </mxCell>
        <mxCell id="j9tZ-ss8oP2DByefkztP-36" value="" style="verticalLabelPosition=bottom;html=1;verticalAlign=top;align=center;shape=mxgraph.floorplan.desk_corner;rotation=-90;" parent="1" vertex="1">
          <mxGeometry x="785" y="210" width="70" height="70" as="geometry" />
        </mxCell>
        <mxCell id="j9tZ-ss8oP2DByefkztP-37" value="" style="verticalLabelPosition=bottom;html=1;verticalAlign=top;align=center;shape=mxgraph.floorplan.desk_corner;" parent="1" vertex="1">
          <mxGeometry x="785" y="280" width="70" height="70" as="geometry" />
        </mxCell>
        <mxCell id="j9tZ-ss8oP2DByefkztP-40" value="" style="verticalLabelPosition=bottom;html=1;verticalAlign=top;align=center;shape=mxgraph.floorplan.wall;fillColor=strokeColor;" parent="1" vertex="1">
          <mxGeometry x="640" y="350" width="280" height="10" as="geometry" />
        </mxCell>
        <mxCell id="j9tZ-ss8oP2DByefkztP-41" value="" style="verticalLabelPosition=bottom;html=1;verticalAlign=top;align=center;shape=mxgraph.floorplan.wall;fillColor=strokeColor;direction=south;" parent="1" vertex="1">
          <mxGeometry x="630" y="50" width="10" height="310" as="geometry" />
        </mxCell>
        <mxCell id="j9tZ-ss8oP2DByefkztP-45" value="" style="verticalLabelPosition=bottom;html=1;verticalAlign=top;align=center;shape=mxgraph.floorplan.desk_corner;rotation=-45;" parent="1" vertex="1">
          <mxGeometry x="690" y="70" width="70" height="70" as="geometry" />
        </mxCell>
        <mxCell id="j9tZ-ss8oP2DByefkztP-46" value="" style="verticalLabelPosition=bottom;html=1;verticalAlign=top;align=center;shape=mxgraph.floorplan.desk_corner;rotation=-90;" parent="1" vertex="1">
          <mxGeometry x="640" y="210" width="70" height="70" as="geometry" />
        </mxCell>
        <mxCell id="j9tZ-ss8oP2DByefkztP-47" value="" style="verticalLabelPosition=bottom;html=1;verticalAlign=top;align=center;shape=mxgraph.floorplan.desk_corner;" parent="1" vertex="1">
          <mxGeometry x="640" y="280" width="70" height="70" as="geometry" />
        </mxCell>
        <mxCell id="j9tZ-ss8oP2DByefkztP-48" value="" style="verticalLabelPosition=bottom;html=1;verticalAlign=top;align=center;shape=mxgraph.floorplan.wallCorner;fillColor=strokeColor;direction=north" parent="1" vertex="1">
          <mxGeometry x="775" y="50" width="155" height="160" as="geometry" />
        </mxCell>
        <mxCell id="j9tZ-ss8oP2DByefkztP-49" value="" style="verticalLabelPosition=bottom;html=1;verticalAlign=top;align=center;shape=mxgraph.floorplan.wall;fillColor=strokeColor;direction=south;" parent="1" vertex="1">
          <mxGeometry x="775" y="210" width="10" height="140" as="geometry" />
        </mxCell>
        <mxCell id="j9tZ-ss8oP2DByefkztP-50" value="" style="verticalLabelPosition=bottom;html=1;verticalAlign=top;align=center;shape=mxgraph.floorplan.wall;fillColor=strokeColor;" parent="1" vertex="1">
          <mxGeometry x="640" y="200" width="135" height="10" as="geometry" />
        </mxCell>
        <mxCell id="j9tZ-ss8oP2DByefkztP-51" value="" style="verticalLabelPosition=bottom;html=1;verticalAlign=top;align=center;shape=mxgraph.floorplan.sofa;rotation=-105;" parent="1" vertex="1">
          <mxGeometry x="650" y="147.5" width="40" height="35" as="geometry" />
        </mxCell>
        <mxCell id="j9tZ-ss8oP2DByefkztP-53" value="" style="verticalLabelPosition=bottom;html=1;verticalAlign=top;align=center;shape=mxgraph.floorplan.room;fillColor=#d5e8d4;strokeColor=#82b366;points=[[0.2,0,0,0,0],[0.4,0,0,0,0],[0.6,0,0,0,0],[0.8,0,0,0,0]];" parent="1" vertex="1">
          <mxGeometry x="795" y="60" width="60" height="60" as="geometry" />
        </mxCell>
        <mxCell id="j9tZ-ss8oP2DByefkztP-54" value="" style="verticalLabelPosition=bottom;html=1;verticalAlign=top;align=center;shape=mxgraph.floorplan.room;fillColor=#d5e8d4;strokeColor=#82b366;" parent="1" vertex="1">
          <mxGeometry x="860" y="60" width="60" height="60" as="geometry" />
        </mxCell>
        <mxCell id="j9tZ-ss8oP2DByefkztP-55" value="" style="verticalLabelPosition=bottom;html=1;verticalAlign=top;align=center;shape=mxgraph.floorplan.doorLeft;aspect=fixed;" parent="1" vertex="1">
          <mxGeometry x="887.06" y="200" width="32.94" height="35" as="geometry" />
        </mxCell>
        <mxCell id="j9tZ-ss8oP2DByefkztP-56" value="" style="verticalLabelPosition=bottom;html=1;verticalAlign=top;align=center;shape=mxgraph.floorplan.doorLeft;aspect=fixed;" parent="1" vertex="1">
          <mxGeometry x="887.06" y="350" width="32.94" height="35" as="geometry" />
        </mxCell>
        <mxCell id="j9tZ-ss8oP2DByefkztP-57" value="" style="verticalLabelPosition=bottom;html=1;verticalAlign=top;align=center;shape=mxgraph.floorplan.doorLeft;aspect=fixed;" parent="1" vertex="1">
          <mxGeometry x="742.06" y="350" width="32.94" height="35" as="geometry" />
        </mxCell>
        <mxCell id="j9tZ-ss8oP2DByefkztP-58" value="" style="verticalLabelPosition=bottom;html=1;verticalAlign=top;align=center;shape=mxgraph.floorplan.doorLeft;aspect=fixed;" parent="1" vertex="1">
          <mxGeometry x="742.06" y="200" width="32.94" height="35" as="geometry" />
        </mxCell>
        <mxCell id="j9tZ-ss8oP2DByefkztP-59" value="" style="verticalLabelPosition=bottom;html=1;verticalAlign=top;align=center;shape=mxgraph.floorplan.doorLeft;aspect=fixed;" parent="1" vertex="1">
          <mxGeometry x="407.05999999999995" y="350" width="32.94" height="35" as="geometry" />
        </mxCell>
        <mxCell id="j9tZ-ss8oP2DByefkztP-60" value="" style="verticalLabelPosition=bottom;html=1;verticalAlign=top;align=center;shape=mxgraph.floorplan.doorLeft;aspect=fixed;" parent="1" vertex="1">
          <mxGeometry x="262.05999999999995" y="350" width="32.94" height="35" as="geometry" />
        </mxCell>
        <mxCell id="j9tZ-ss8oP2DByefkztP-63" value="" style="verticalLabelPosition=bottom;html=1;verticalAlign=top;align=center;shape=mxgraph.floorplan.wallCorner;fillColor=strokeColor;" parent="1" vertex="1">
          <mxGeometry x="262.06" y="400" width="177.94" height="80" as="geometry" />
        </mxCell>
        <mxCell id="j9tZ-ss8oP2DByefkztP-64" value="" style="verticalLabelPosition=bottom;html=1;verticalAlign=top;align=center;shape=mxgraph.floorplan.doorLeft;aspect=fixed;rotation=-180;" parent="1" vertex="1">
          <mxGeometry x="334.55999999999995" y="375" width="32.94" height="35" as="geometry" />
        </mxCell>
        <mxCell id="j9tZ-ss8oP2DByefkztP-65" value="" style="verticalLabelPosition=bottom;html=1;verticalAlign=top;align=center;shape=mxgraph.floorplan.room;fillColor=#dae8fc;strokeColor=#6c8ebf;points=[[0.2,0,0,0,0],[0.4,0,0,0,0],[0.6,0,0,0,0],[0.8,0,0,0,0]];" parent="1" vertex="1">
          <mxGeometry x="390" y="50" width="50" height="40" as="geometry" />
        </mxCell>
        <mxCell id="0v4sGBaeVf3ffqheD6b_-1" value="" style="verticalLabelPosition=bottom;html=1;verticalAlign=top;align=center;shape=mxgraph.floorplan.wallU;fillColor=strokeColor;rotation=-90;" parent="1" vertex="1">
          <mxGeometry x="387.5" y="332.5" width="440" height="1135" as="geometry" />
        </mxCell>
        <mxCell id="0v4sGBaeVf3ffqheD6b_-2" value="" style="verticalLabelPosition=bottom;html=1;verticalAlign=top;align=center;shape=mxgraph.floorplan.wallCorner;fillColor=strokeColor;direction=west" parent="1" vertex="1">
          <mxGeometry x="1170" y="480" width="370" height="640" as="geometry" />
        </mxCell>
        <mxCell id="0v4sGBaeVf3ffqheD6b_-3" value="" style="verticalLabelPosition=bottom;html=1;verticalAlign=top;align=center;shape=mxgraph.floorplan.wallCorner;fillColor=strokeColor;" parent="1" vertex="1">
          <mxGeometry x="1170" y="480" width="370" height="210" as="geometry" />
        </mxCell>
        <mxCell id="j9tZ-ss8oP2DByefkztP-4" value="" style="verticalLabelPosition=bottom;html=1;verticalAlign=top;align=center;shape=mxgraph.floorplan.doorLeft;aspect=fixed;" parent="1" vertex="1">
          <mxGeometry x="530" y="680" width="80" height="85" as="geometry" />
        </mxCell>
        <mxCell id="0v4sGBaeVf3ffqheD6b_-4" value="" style="verticalLabelPosition=bottom;html=1;verticalAlign=top;align=center;shape=mxgraph.floorplan.wall;fillColor=strokeColor;direction=south;" parent="1" vertex="1">
          <mxGeometry x="920" y="690" width="10" height="420" as="geometry" />
        </mxCell>
        <mxCell id="0v4sGBaeVf3ffqheD6b_-5" value="" style="verticalLabelPosition=bottom;html=1;verticalAlign=top;align=center;shape=mxgraph.floorplan.doorDouble;aspect=fixed;rotation=90;" parent="1" vertex="1">
          <mxGeometry x="810" y="824" width="160" height="85" as="geometry" />
        </mxCell>
        <mxCell id="0v4sGBaeVf3ffqheD6b_-6" value="150 m" style="shape=dimension;whiteSpace=wrap;html=1;align=center;points=[];verticalAlign=bottom;spacingBottom=3;labelBackgroundColor=none;" parent="1" vertex="1">
          <mxGeometry x="40" y="1080" width="1500" height="70" as="geometry" />
        </mxCell>
        <mxCell id="0v4sGBaeVf3ffqheD6b_-8" value="100m" style="shape=dimension;whiteSpace=wrap;html=1;align=center;points=[];verticalAlign=bottom;spacingBottom=3;labelBackgroundColor=none;rotation=90;" parent="1" vertex="1">
          <mxGeometry x="-490" y="544" width="1080" height="70" as="geometry" />
        </mxCell>
        <mxCell id="w9mkR79nx1VCq2YzBR1f-1" value="Bureaux RDC" style="text;html=1;align=center;verticalAlign=middle;whiteSpace=wrap;rounded=0;fillColor=#dae8fc;strokeColor=#6c8ebf;fontSize=14;" parent="1" vertex="1">
          <mxGeometry x="160" y="20" width="155" height="30" as="geometry" />
        </mxCell>
        <mxCell id="w9mkR79nx1VCq2YzBR1f-3" value="Ateliers fabrication" style="text;html=1;align=center;verticalAlign=middle;whiteSpace=wrap;rounded=0;fillColor=#ffe6cc;strokeColor=#d79b00;fontSize=14;" parent="1" vertex="1">
          <mxGeometry x="630" y="660" width="155" height="30" as="geometry" />
        </mxCell>
        <mxCell id="NcecpZPSmW7LZMny81eA-1" value="Atelier fabrication 1" style="text;html=1;align=center;verticalAlign=middle;whiteSpace=wrap;rounded=0;fillColor=#fff2cc;strokeColor=#d6b656;fontSize=14;" parent="1" vertex="1">
          <mxGeometry x="140" y="900" width="155" height="30" as="geometry" />
        </mxCell>
        <mxCell id="0fhq6JTLAvQjIUdSAwFy-1" value="Atelier fabrication 2" style="text;html=1;align=center;verticalAlign=middle;whiteSpace=wrap;rounded=0;fillColor=#fff2cc;strokeColor=#d6b656;fontSize=14;" parent="1" vertex="1">
          <mxGeometry x="580" y="900" width="155" height="30" as="geometry" />
        </mxCell>
        <mxCell id="0fhq6JTLAvQjIUdSAwFy-2" value="Atelier fabrication 3" style="text;html=1;align=center;verticalAlign=middle;whiteSpace=wrap;rounded=0;fillColor=#fff2cc;strokeColor=#d6b656;fontSize=14;" parent="1" vertex="1">
          <mxGeometry x="1241" y="900" width="155" height="30" as="geometry" />
        </mxCell>
        <mxCell id="0fhq6JTLAvQjIUdSAwFy-3" value="No Name Corp." style="rounded=0;whiteSpace=wrap;html=1;fontSize=16;" parent="1" vertex="1">
          <mxGeometry x="1090" y="102.5" width="450" height="40" as="geometry" />
        </mxCell>
        <mxCell id="0fhq6JTLAvQjIUdSAwFy-5" value="Plan de masse" style="rounded=0;whiteSpace=wrap;html=1;fontSize=16;" parent="1" vertex="1">
          <mxGeometry x="1090" y="142.5" width="290" height="40" as="geometry" />
        </mxCell>
        <mxCell id="0fhq6JTLAvQjIUdSAwFy-6" value="Janv. 2025" style="rounded=0;whiteSpace=wrap;html=1;fontSize=16;" parent="1" vertex="1">
          <mxGeometry x="1380" y="142.5" width="160" height="40" as="geometry" />
        </mxCell>
        <mxCell id="0fhq6JTLAvQjIUdSAwFy-8" value="Salle serveurs" style="text;html=1;align=center;verticalAlign=middle;whiteSpace=wrap;rounded=0;fillColor=#d5e8d4;strokeColor=#82b366;fontSize=14;" parent="1" vertex="1">
          <mxGeometry x="793.75" y="140" width="117.5" height="30" as="geometry" />
        </mxCell>
        <mxCell id="0fhq6JTLAvQjIUdSAwFy-9" value="Bureau SI" style="text;html=1;align=center;verticalAlign=middle;whiteSpace=wrap;rounded=0;fillColor=#d5e8d4;strokeColor=#82b366;fontSize=14;" parent="1" vertex="1">
          <mxGeometry x="793.75" y="270" width="117.5" height="30" as="geometry" />
        </mxCell>
        <mxCell id="skrLSgNnwyADjFCpcm8S-1" value="" style="endArrow=none;html=1;rounded=0;entryX=0.2;entryY=0;entryDx=0;entryDy=0;entryPerimeter=0;exitX=0.8;exitY=0;exitDx=0;exitDy=0;exitPerimeter=0;edgeStyle=orthogonalEdgeStyle;strokeWidth=2;strokeColor=#0066CC;shape=link;dashed=1;" parent="1" source="j9tZ-ss8oP2DByefkztP-65" target="j9tZ-ss8oP2DByefkztP-53" edge="1">
          <mxGeometry width="50" height="50" relative="1" as="geometry">
            <mxPoint x="460" y="510" as="sourcePoint" />
            <mxPoint x="510" y="460" as="targetPoint" />
            <Array as="points">
              <mxPoint x="430" y="100" />
              <mxPoint x="807" y="100" />
            </Array>
          </mxGeometry>
        </mxCell>
        <mxCell id="v6BKCtHypesfE3aBw0QE-11" value="FO x2" style="edgeLabel;html=1;align=center;verticalAlign=middle;resizable=0;points=[];fontSize=14;fontColor=#004C99;fontStyle=1" vertex="1" connectable="0" parent="skrLSgNnwyADjFCpcm8S-1">
          <mxGeometry x="0.2758" y="1" relative="1" as="geometry">
            <mxPoint x="-188" as="offset" />
          </mxGeometry>
        </mxCell>
        <mxCell id="skrLSgNnwyADjFCpcm8S-3" value="" style="endArrow=none;html=1;rounded=0;entryX=0.6;entryY=0;entryDx=0;entryDy=0;entryPerimeter=0;exitX=0.2;exitY=0;exitDx=0;exitDy=0;exitPerimeter=0;edgeStyle=orthogonalEdgeStyle;strokeWidth=2;strokeColor=#CC6600;shape=link;width=4.615384615384615;dashed=1;" parent="1" source="j9tZ-ss8oP2DByefkztP-10" target="j9tZ-ss8oP2DByefkztP-53" edge="1">
          <mxGeometry width="50" height="50" relative="1" as="geometry">
            <mxPoint x="440" y="60" as="sourcePoint" />
            <mxPoint x="817" y="70" as="targetPoint" />
            <Array as="points">
              <mxPoint x="350" y="500" />
              <mxPoint x="430" y="500" />
              <mxPoint x="430" y="130" />
              <mxPoint x="831" y="130" />
            </Array>
          </mxGeometry>
        </mxCell>
        <mxCell id="v6BKCtHypesfE3aBw0QE-12" value="FO x2" style="edgeLabel;html=1;align=center;verticalAlign=middle;resizable=0;points=[];fontSize=14;fontColor=#FF8000;fontStyle=1" vertex="1" connectable="0" parent="skrLSgNnwyADjFCpcm8S-3">
          <mxGeometry x="0.2613" y="-3" relative="1" as="geometry">
            <mxPoint y="-4" as="offset" />
          </mxGeometry>
        </mxCell>
        <mxCell id="j9tZ-ss8oP2DByefkztP-10" value="" style="verticalLabelPosition=bottom;html=1;verticalAlign=top;align=center;shape=mxgraph.floorplan.room;fillColor=#ffe6cc;strokeColor=#d79b00;points=[[0.2,0,0,0,0],[0.4,0,0,0,0],[0.6,0,0,0,0],[0.8,0,0,0,0]];" parent="1" vertex="1">
          <mxGeometry x="340" y="690" width="50" height="40" as="geometry" />
        </mxCell>
        <mxCell id="v6BKCtHypesfE3aBw0QE-2" value="" style="verticalLabelPosition=bottom;html=1;verticalAlign=top;align=center;shape=mxgraph.floorplan.room;fillColor=#e1d5e7;strokeColor=#9673a6;points=[[0.2,0,0,0,0],[0.4,0,0,0,0],[0.6,0,0,0,0],[0.8,0,0,0,0]];" vertex="1" parent="1">
          <mxGeometry x="1180" y="640" width="50" height="40" as="geometry" />
        </mxCell>
        <mxCell id="v6BKCtHypesfE3aBw0QE-4" value="" style="verticalLabelPosition=bottom;html=1;verticalAlign=top;align=center;shape=mxgraph.floorplan.wall;fillColor=strokeColor;direction=south;" vertex="1" parent="1">
          <mxGeometry x="1320" y="490" width="10" height="70" as="geometry" />
        </mxCell>
        <mxCell id="v6BKCtHypesfE3aBw0QE-6" value="" style="verticalLabelPosition=bottom;html=1;verticalAlign=top;align=center;shape=mxgraph.floorplan.desk_corner;" vertex="1" parent="1">
          <mxGeometry x="1250" y="490" width="70" height="70" as="geometry" />
        </mxCell>
        <mxCell id="v6BKCtHypesfE3aBw0QE-7" value="" style="verticalLabelPosition=bottom;html=1;verticalAlign=top;align=center;shape=mxgraph.floorplan.desk_corner;rotation=90;" vertex="1" parent="1">
          <mxGeometry x="1180" y="490" width="70" height="70" as="geometry" />
        </mxCell>
        <mxCell id="v6BKCtHypesfE3aBw0QE-8" value="" style="verticalLabelPosition=bottom;html=1;verticalAlign=top;align=center;shape=mxgraph.floorplan.wallCorner;fillColor=strokeColor;direction=west" vertex="1" parent="1">
          <mxGeometry x="1180" y="620" width="150" height="70" as="geometry" />
        </mxCell>
        <mxCell id="v6BKCtHypesfE3aBw0QE-9" style="edgeStyle=orthogonalEdgeStyle;rounded=0;orthogonalLoop=1;jettySize=auto;html=1;exitX=0.8;exitY=0;exitDx=0;exitDy=0;exitPerimeter=0;entryX=0.2;entryY=0;entryDx=0;entryDy=0;entryPerimeter=0;endArrow=none;endFill=0;strokeColor=#7F00FF;shape=link;strokeWidth=2;dashed=1;" edge="1" parent="1" source="j9tZ-ss8oP2DByefkztP-53" target="v6BKCtHypesfE3aBw0QE-2">
          <mxGeometry relative="1" as="geometry">
            <Array as="points">
              <mxPoint x="843" y="130" />
              <mxPoint x="940" y="130" />
              <mxPoint x="940" y="470" />
              <mxPoint x="1190" y="470" />
            </Array>
          </mxGeometry>
        </mxCell>
        <mxCell id="v6BKCtHypesfE3aBw0QE-13" value="FO x2" style="edgeLabel;html=1;align=center;verticalAlign=middle;resizable=0;points=[];fontSize=14;fontColor=#6600CC;fontStyle=1" vertex="1" connectable="0" parent="v6BKCtHypesfE3aBw0QE-9">
          <mxGeometry x="0.3992" relative="1" as="geometry">
            <mxPoint as="offset" />
          </mxGeometry>
        </mxCell>
        <mxCell id="w9mkR79nx1VCq2YzBR1f-2" value="Bureaux étage" style="text;html=1;align=center;verticalAlign=middle;whiteSpace=wrap;rounded=0;fillColor=#dae8fc;strokeColor=#6c8ebf;fontSize=14;" parent="1" vertex="1">
          <mxGeometry x="640" y="20" width="155" height="30" as="geometry" />
        </mxCell>
        <mxCell id="1DokFSwdIkXXPAJwDzpu-1" value="1.1 - TP fil rouge - Partie 2 - Annexe 3 - Plan physique" style="rounded=1;whiteSpace=wrap;html=1;fillColor=#CC99FF;strokeColor=#9673a6;fontColor=#FFFFFF;fontSize=14;fontStyle=1" parent="1" vertex="1">
          <mxGeometry x="940" y="40" width="700" height="30" as="geometry" />
        </mxCell>
        <mxCell id="v6BKCtHypesfE3aBw0QE-10" value="" style="verticalLabelPosition=bottom;html=1;verticalAlign=top;align=center;shape=mxgraph.floorplan.room;fillColor=#e1d5e7;strokeColor=#9673a6;points=[[0.2,0,0,0,0],[0.4,0,0,0,0],[0.6,0,0,0,0],[0.8,0,0,0,0]];" vertex="1" parent="1">
          <mxGeometry x="1230" y="620" width="90" height="60" as="geometry" />
        </mxCell>
        <mxCell id="v6BKCtHypesfE3aBw0QE-14" value="Salle de contrôle 1" style="text;html=1;align=center;verticalAlign=middle;whiteSpace=wrap;rounded=0;fillColor=#fff2cc;strokeColor=#d6b656;fontSize=14;" vertex="1" parent="1">
          <mxGeometry x="179.56" y="700" width="130.44" height="30" as="geometry" />
        </mxCell>
        <mxCell id="v6BKCtHypesfE3aBw0QE-15" value="Baie réseau fab01" style="text;html=1;align=center;verticalAlign=middle;whiteSpace=wrap;rounded=0;fillColor=#fff2cc;strokeColor=#d6b656;fontSize=14;" vertex="1" parent="1">
          <mxGeometry x="364.78" y="710" width="85.22" height="40" as="geometry" />
        </mxCell>
        <mxCell id="v6BKCtHypesfE3aBw0QE-16" value="Baie réseau fab02" style="text;html=1;align=center;verticalAlign=middle;whiteSpace=wrap;rounded=0;fillColor=#e1d5e7;strokeColor=#9673a6;fontSize=14;" vertex="1" parent="1">
          <mxGeometry x="1120" y="660" width="85.22" height="40" as="geometry" />
        </mxCell>
        <mxCell id="v6BKCtHypesfE3aBw0QE-17" value="Salle de contrôle 2" style="text;html=1;align=center;verticalAlign=middle;whiteSpace=wrap;rounded=0;fillColor=#e1d5e7;strokeColor=#9673a6;fontSize=14;" vertex="1" parent="1">
          <mxGeometry x="1199.56" y="470" width="130.44" height="30" as="geometry" />
        </mxCell>
        <mxCell id="v6BKCtHypesfE3aBw0QE-18" value="Baie système fab02" style="text;html=1;align=center;verticalAlign=middle;whiteSpace=wrap;rounded=0;fillColor=#e1d5e7;strokeColor=#9673a6;fontSize=14;" vertex="1" parent="1">
          <mxGeometry x="1282.39" y="660" width="97.61" height="40" as="geometry" />
        </mxCell>
        <mxCell id="v6BKCtHypesfE3aBw0QE-19" value="Baie réseau bur01" style="text;html=1;align=center;verticalAlign=middle;whiteSpace=wrap;rounded=0;fillColor=#dae8fc;strokeColor=#6c8ebf;fontSize=14;" vertex="1" parent="1">
          <mxGeometry x="322.39" y="70" width="85.22" height="40" as="geometry" />
        </mxCell>
      </root>
    </mxGraphModel>
  </diagram>
</mxfile>
